<svg id="Layer_1" data-name="Layer 1" xmlns="http://www.w3.org/2000/svg" viewBox="0 0 446.99 100"><path d="M396.84.57A5.08,5.08,0,0,1,399,0H446.5c.62,0,.66.21.09.46L420.65,12.08a6.26,6.26,0,0,1-2.17.47H377.17c-.63,0-.69-.26-.15-.57Z" fill="white"/><path d="M353.26,25.66a5,5,0,0,1,2.12-.57h35.08c.63,0,.67.21.1.47L364.62,37.17a6.26,6.26,0,0,1-2.18.47H333.59c-.63,0-.7-.26-.15-.57Z" fill="white"/><path d="M309.68,50.75a5,5,0,0,1,2.12-.56h22.63c.62,0,.67.2.1.46L308.58,62.27a6.43,6.43,0,0,1-2.17.46H290c-.63,0-.7-.25-.16-.57Z" fill="white"/><path d="M266.09,75.84a5.11,5.11,0,0,1,2.13-.56h10.17c.63,0,.67.21.1.46L252.55,87.36a6.48,6.48,0,0,1-2.17.46h-4c-.62,0-.69-.25-.15-.56Z" fill="white"/><path d="M224.48,99.8c-.54.31-.58.25-.1-.14l13.8-11.12a3.67,3.67,0,0,1,2-.72h4c.63,0,.69.26.15.57Z" fill="white"/><path d="M268.06,74.71a5,5,0,0,1-2.12.57H255.76c-.62,0-.73-.32-.25-.72l13.8-11.12a3.74,3.74,0,0,1,2-.71h16.4c.63,0,.7.26.15.57Z" fill="white"/><path d="M311.65,49.62a5.12,5.12,0,0,1-2.13.57H286.89c-.62,0-.74-.33-.25-.72l13.8-11.12a3.74,3.74,0,0,1,2-.71h28.86c.62,0,.69.25.15.57Z" fill="white"/><path d="M355.23,24.53a5.07,5.07,0,0,1-2.12.56H318c-.62,0-.74-.32-.25-.71l13.8-11.12a3.74,3.74,0,0,1,2-.71H374.9c.62,0,.69.25.15.56Z" fill="white"/><path d="M297.53.91A2.55,2.55,0,0,1,299.35,0h47.53c.63,0,.74.32.25.71L333.34,11.83a3.72,3.72,0,0,1-2,.72H290c-.63,0-.83-.41-.46-.92Z" fill="white"/><path d="M278.85,26a2.57,2.57,0,0,1,1.82-.91h35.08c.63,0,.74.32.25.72L302.21,36.93a3.79,3.79,0,0,1-2,.71H271.33c-.63,0-.83-.41-.46-.91Z" fill="white"/><path d="M260.17,51.1a2.57,2.57,0,0,1,1.82-.91h22.63c.63,0,.74.32.25.71L271.08,62a3.79,3.79,0,0,1-2,.71H252.65c-.62,0-.83-.41-.46-.91Z" fill="white"/><path d="M241.5,76.19a2.55,2.55,0,0,1,1.81-.91h10.18c.63,0,.74.32.25.71L240,87.11a3.79,3.79,0,0,1-2,.71h-4c-.62,0-.83-.41-.46-.91Z" fill="white"/><path d="M224.18,99.46c-.38.5-.56.41-.41-.19l2.57-10.34a1.53,1.53,0,0,1,1.41-1.11h3.95c.62,0,.83.41.46.92Z" fill="white"/><path d="M242.85,74.37a2.55,2.55,0,0,1-1.81.91H230.86a.85.85,0,0,1-.86-1.11l2.56-10.34a1.54,1.54,0,0,1,1.41-1.1h16.41c.62,0,.83.41.46.91Z" fill="white"/><path d="M261.53,49.27a2.56,2.56,0,0,1-1.81.92H237.09a.86.86,0,0,1-.87-1.11l2.57-10.34a1.53,1.53,0,0,1,1.41-1.1h28.86c.62,0,.83.41.45.91Z" fill="white"/><path d="M280.21,24.18a2.55,2.55,0,0,1-1.82.91H243.31a.85.85,0,0,1-.86-1.1L245,13.65a1.53,1.53,0,0,1,1.41-1.1h41.31c.63,0,.83.41.46.91Z" fill="white"/><path d="M198.87,1.1a.84.84,0,0,1,.86-1.1h47.53a.85.85,0,0,1,.87,1.1l-2.57,10.34a1.53,1.53,0,0,1-1.41,1.11H202.84a1.54,1.54,0,0,1-1.41-1.11Z" fill="white"/><path d="M205.09,26.2a.86.86,0,0,1,.87-1.11H241a.85.85,0,0,1,.86,1.11l-2.56,10.34a1.54,1.54,0,0,1-1.41,1.1H209.07a1.53,1.53,0,0,1-1.41-1.1Z" fill="white"/><path d="M211.32,51.29a.85.85,0,0,1,.86-1.1h22.63a.85.85,0,0,1,.87,1.1l-2.57,10.34a1.54,1.54,0,0,1-1.41,1.1H215.29a1.55,1.55,0,0,1-1.41-1.1Z" fill="white"/><path d="M217.55,76.38a.84.84,0,0,1,.86-1.1h10.18a.85.85,0,0,1,.86,1.1l-2.57,10.34a1.52,1.52,0,0,1-1.41,1.1h-3.95a1.53,1.53,0,0,1-1.41-1.1Z" fill="white"/><path d="M223.22,99.27c.15.6,0,.69-.4.19l-8-10.72c-.38-.51-.17-.92.45-.92h4a1.54,1.54,0,0,1,1.41,1.11Z" fill="white"/><path d="M217,74.17a.86.86,0,0,1-.87,1.11H206a2.55,2.55,0,0,1-1.82-.91l-8-10.73c-.37-.5-.17-.91.46-.91H213a1.53,1.53,0,0,1,1.41,1.1Z" fill="white"/><path d="M210.77,49.08a.85.85,0,0,1-.86,1.11H187.28a2.58,2.58,0,0,1-1.82-.92l-8-10.72c-.37-.5-.17-.91.46-.91H206.8a1.54,1.54,0,0,1,1.41,1.1Z" fill="white"/><path d="M204.55,24a.85.85,0,0,1-.87,1.1H168.6a2.55,2.55,0,0,1-1.81-.91l-8-10.72c-.37-.5-.16-.91.46-.91h41.31a1.52,1.52,0,0,1,1.41,1.1Z" fill="white"/><path d="M99.86.71c-.48-.39-.37-.71.25-.71h47.54a2.55,2.55,0,0,1,1.81.91l8,10.72c.37.51.16.92-.46.92H115.68a3.67,3.67,0,0,1-2-.72Z" fill="white"/><path d="M131,25.81c-.48-.4-.37-.72.25-.72h35.09a2.55,2.55,0,0,1,1.81.91l8,10.73c.38.5.17.91-.45.91H146.81a3.74,3.74,0,0,1-2-.71Z" fill="white"/><path d="M162.12,50.9c-.48-.39-.37-.71.25-.71H185a2.55,2.55,0,0,1,1.81.91l8,10.72c.38.5.17.91-.46.91h-16.4a3.74,3.74,0,0,1-2-.71Z" fill="white"/><path d="M193.25,76c-.48-.39-.37-.71.25-.71h10.18a2.57,2.57,0,0,1,1.82.91l8,10.72c.37.5.17.91-.46.91h-4a3.74,3.74,0,0,1-2-.71Z" fill="white"/><path d="M222.61,99.66c.49.39.44.45-.1.14L202.69,88.39c-.54-.31-.47-.57.15-.57h4a3.72,3.72,0,0,1,2,.72Z" fill="white"/><path d="M191.48,74.56c.49.4.38.72-.25.72H181.05a5.08,5.08,0,0,1-2.12-.57L159.11,63.3c-.54-.31-.47-.57.15-.57h16.41a3.79,3.79,0,0,1,2,.71Z" fill="white"/><path d="M160.35,49.47c.49.39.38.72-.25.72H137.47a5.08,5.08,0,0,1-2.12-.57L115.53,38.21c-.54-.32-.48-.57.15-.57h28.86a3.79,3.79,0,0,1,2,.71Z" fill="white"/><path d="M129.22,24.38c.49.39.38.71-.25.71H93.89a5,5,0,0,1-2.12-.56L72,13.11c-.55-.31-.48-.56.15-.56h41.31a3.79,3.79,0,0,1,2,.71Z" fill="white"/><path d="M.4.46C-.17.21-.13,0,.5,0H48a5.12,5.12,0,0,1,2.13.57L70,12c.54.31.47.57-.15.57H28.52a6.26,6.26,0,0,1-2.18-.47Z" fill="white"/><path d="M56.43,25.56c-.57-.26-.52-.47.1-.47H91.62a5.08,5.08,0,0,1,2.12.57l19.82,11.41c.54.31.47.57-.15.57H84.55a6.21,6.21,0,0,1-2.17-.47Z" fill="white"/><path d="M112.47,50.65c-.57-.26-.53-.46.1-.46H135.2a5.07,5.07,0,0,1,2.12.56l19.82,11.41c.54.32.47.57-.15.57H140.58a6.48,6.48,0,0,1-2.17-.46Z" fill="white"/><path d="M168.5,75.74c-.57-.25-.52-.46.1-.46h10.18a5.07,5.07,0,0,1,2.12.56l19.82,11.42c.54.31.47.56-.15.56h-3.95a6.49,6.49,0,0,1-2.18-.46Z" fill="white"/></svg>