<svg id="Layer_1" data-name="Layer 1" xmlns="http://www.w3.org/2000/svg" viewBox="0 0 1000 268.69"><defs><style>.cls-1{fill:#00000;}</style></defs><path class="cls-1" d="M133.33,268.69H0L66.67,235.1H183.33Z"/><path class="cls-1" d="M233.33,201.52h-100L200,167.93h83.33Z"/><path class="cls-1" d="M333.33,134.34H266.67l66.66-33.58h50Z"/><path class="cls-1" d="M433.33,67.17H400l66.67-33.58h16.66Z"/><path class="cls-1" d="M533.33,0h0L500,33.59H483.33Z"/><path class="cls-1" d="M433.33,67.17h33.34l-33.34,33.59h-50Z"/><path class="cls-1" d="M333.33,134.34H400l-33.33,33.59H283.33Z"/><path class="cls-1" d="M233.33,201.52h100L300,235.1H183.33Z"/><path class="cls-1" d="M400,268.69H266.67L300,235.1H416.67Z"/><path class="cls-1" d="M433.33,201.52h-100l33.34-33.59H450Q441.66,184.72,433.33,201.52Z"/><path class="cls-1" d="M466.67,134.34H400l33.33-33.58h50Z"/><path class="cls-1" d="M500,67.17H466.67L500,33.59h16.67Q508.33,50.38,500,67.17Z"/><path class="cls-1" d="M533.33,0h0V33.59H516.67Q525,16.79,533.33,0Z"/><path class="cls-1" d="M500,67.17h33.33v33.59h-50Z"/><path class="cls-1" d="M466.67,134.34h66.66v33.59H450Z"/><path class="cls-1" d="M433.33,201.52h100V235.1H416.67Z"/><path class="cls-1" d="M666.67,268.69H533.33V235.1H650Z"/><path class="cls-1" d="M633.33,201.52h-100V167.93h83.34Q625,184.72,633.33,201.52Z"/><path class="cls-1" d="M600,134.34H533.33V100.76h50Q591.67,117.55,600,134.34Z"/><path class="cls-1" d="M566.67,67.17H533.33V33.59H550Q558.34,50.38,566.67,67.17Z"/><path class="cls-1" d="M533.33,0h0l33.34,33.59H550Z"/><path class="cls-1" d="M566.67,67.17H600l33.33,33.59h-50Q575,84,566.67,67.17Z"/><path class="cls-1" d="M600,134.34h66.67L700,167.93H616.67Z"/><path class="cls-1" d="M633.33,201.52h100l33.34,33.58H650Q641.66,218.32,633.33,201.52Z"/><path class="cls-1" d="M933.33,268.69H800L766.67,235.1H883.33Z"/><path class="cls-1" d="M833.33,201.52h-100L700,167.93h83.33Z"/><path class="cls-1" d="M733.33,134.34H666.67l-33.34-33.58h50Z"/><path class="cls-1" d="M633.33,67.17H600L566.67,33.59h16.66Z"/><path class="cls-1" d="M533.33,0h0L600,33.59H583.33Z"/><path class="cls-1" d="M633.33,67.17h33.34l66.66,33.59h-50Z"/><path class="cls-1" d="M733.33,134.34H800l66.67,33.59H783.33Z"/><path class="cls-1" d="M833.33,201.52h100L1000,235.1H883.33Z"/></svg>