<svg id="Layer_1" data-name="Layer 1" xmlns="http://www.w3.org/2000/svg" viewBox="0 0 42.86 300"><path d="M21.43,257.14Q10.72,214.29,0,171.43H0q10.71,32.15,21.43,64.28Z" style="fill:#010101"/><path d="M21.43,214.29,0,171.43H0l21.43,21.43Z" style="fill:#010101"/><path d="M21.43,171.43H0L21.43,150Z" style="fill:#010101"/><path d="M21.43,128.57Q10.72,150,0,171.43H0l21.43-64.29Z" style="fill:#010101"/><path d="M21.43,85.71Q32.14,42.86,42.86,0V42.86Q32.14,75,21.43,107.14Z" style="fill:#010101"/><path d="M21.43,128.57,42.86,85.71v42.86L21.43,150Z" style="fill:#010101"/><path d="M21.43,171.43H42.86v42.86L21.43,192.86Z" style="fill:#010101"/><path d="M21.43,214.29l21.43,42.85V300q-10.72-32.14-21.43-64.29Z" style="fill:#010101"/></svg>