<svg id="Layer_1" data-name="Layer 1" xmlns="http://www.w3.org/2000/svg" viewBox="0 0 42.86 300"><path d="M21.43,249a1,1,0,0,1-2,.24Q9.73,210.35,0,171.43H0l21.38,64.13a1.13,1.13,0,0,1,.05.32Z" style="fill:#010101"/><path d="M21.43,210.05a1,1,0,0,1-1.9.45L0,171.43H0l21.14,21.13a1.05,1.05,0,0,1,.29.71Z" style="fill:#010101"/><path d="M21.43,170.43a1,1,0,0,1-1,1H0q9.86-9.87,19.72-19.72a1,1,0,0,1,1.71.7Z" style="fill:#010101"/><path d="M21.43,128.34a1,1,0,0,1-.11.44Q10.67,150.11,0,171.43H0Q9.74,142.21,19.48,113a1,1,0,0,1,1.95.32Z" style="fill:#010101"/><path d="M21.46,85.59q9.7-38.85,19.43-77.71a1,1,0,0,1,2,.24V42.69a1.13,1.13,0,0,1,0,.32Q33.09,72.16,23.38,101.3a1,1,0,0,1-1.95-.32V85.84A1.07,1.07,0,0,1,21.46,85.59Z" style="fill:#010101"/><path d="M21.53,128.36,41,89.5a1,1,0,0,1,1.9.45v38.21a1,1,0,0,1-.3.7L23.14,148.29a1,1,0,0,1-1.71-.7V128.81A1,1,0,0,1,21.53,128.36Z" style="fill:#010101"/><path d="M22.43,171.43H41.86a1,1,0,0,1,1,1v39.44a1,1,0,0,1-1.71.71L21.72,193.15a1,1,0,0,1-.29-.71v-20A1,1,0,0,1,22.43,171.43Z" style="fill:#010101"/><path d="M23.32,218.07l19.43,38.86a1,1,0,0,1,.11.45v36.46a1,1,0,0,1-2,.31Q31.19,265,21.48,235.87a1.13,1.13,0,0,1-.05-.32v-17A1,1,0,0,1,23.32,218.07Z" style="fill:#010101"/></svg>