<?xml version="1.0" encoding="utf-8"?>
<!-- Generator: Adobe Illustrator 25.2.3, SVG Export Plug-In . SVG Version: 6.00 Build 0)  -->
<svg version="1.1" id="Layer_1" xmlns="http://www.w3.org/2000/svg" xmlns:xlink="http://www.w3.org/1999/xlink" x="0px" y="0px"
	 viewBox="0 0 300 106.7" style="enable-background:new 0 0 300 106.7;" xml:space="preserve">
<style type="text/css">
	.st0{fill:#231F20;}
</style>
<g>
	<path class="st0" d="M296,23.5c0.1,0,0.2,0,0.3,0.1c0.1,0,0.2,0.1,0.2,0.2c0.1,0.1,0.1,0.2,0.2,0.3c0.1,0.1,0.1,0.2,0.1,0.3
		l3.2,25.3c0,0.1,0,0.2,0,0.3c0,0.1-0.1,0.2-0.1,0.3c-0.1,0.1-0.1,0.1-0.2,0.2c-0.1,0-0.2,0.1-0.3,0.1h-1.6c-0.1,0-0.2,0-0.3-0.1
		c-0.1-0.1-0.2-0.1-0.3-0.2c-0.1-0.1-0.1-0.2-0.2-0.3c0-0.1-0.1-0.2-0.1-0.3l-3.1-25.4c0-0.1,0-0.2,0-0.3c0-0.1,0.1-0.2,0.1-0.3
		c0.1-0.1,0.1-0.1,0.2-0.2c0.1,0,0.2-0.1,0.3,0L296,23.5z"/>
	<path class="st0" d="M286.5,22.8c0.9,0,1.7,0.2,2.5,0.6c0.7,0.3,1.3,0.8,1.7,1.4c0.5,0.6,0.9,1.4,1.1,2.1c0.3,0.9,0.5,1.9,0.6,2.8
		l1.7,13.8c0.1,0.9,0.2,1.8,0.1,2.8c0,0.8-0.2,1.6-0.5,2.3c-0.3,0.7-0.8,1.2-1.4,1.6c-0.8,0.4-1.7,0.6-2.6,0.6
		c-0.9,0-1.8-0.2-2.6-0.5c-0.7-0.3-1.3-0.8-1.8-1.4c-0.5-0.7-0.9-1.4-1.1-2.2c-0.3-1-0.5-2-0.6-3l-1.6-14c-0.1-0.9-0.1-1.8-0.1-2.7
		c0-0.8,0.2-1.5,0.6-2.2c0.3-0.6,0.8-1.1,1.5-1.5C284.8,22.8,285.6,22.7,286.5,22.8z M291.1,44.1l-1.7-14.4
		c-0.1-0.6-0.2-1.2-0.3-1.7c-0.1-0.4-0.3-0.8-0.5-1.2c-0.2-0.3-0.4-0.6-0.8-0.8c-0.3-0.2-0.6-0.3-1-0.3c-0.3,0-0.6,0-0.9,0.2
		c-0.3,0.2-0.5,0.4-0.6,0.7c-0.2,0.4-0.2,0.8-0.3,1.2c0,0.6,0,1.2,0.1,1.7l1.7,14.6c0.1,0.5,0.2,1.1,0.3,1.6
		c0.1,0.4,0.3,0.8,0.6,1.2c0.2,0.3,0.5,0.5,0.8,0.7c0.3,0.2,0.6,0.2,0.9,0.2c0.3,0,0.6-0.1,0.9-0.2c0.3-0.2,0.5-0.4,0.6-0.7
		c0.2-0.4,0.3-0.8,0.3-1.2C291.2,45.1,291.2,44.6,291.1,44.1"/>
	<path class="st0" d="M278.3,22.5c0.1,0,0.2,0,0.3,0.1c0.1,0.1,0.2,0.1,0.3,0.2c0.1,0.1,0.1,0.2,0.2,0.3c0.1,0.1,0.1,0.2,0.1,0.4
		l2.8,26.1c0,0.1,0,0.2,0,0.4c0,0.1-0.1,0.2-0.1,0.3c-0.1,0.1-0.1,0.1-0.2,0.2c-0.1,0.1-0.2,0.1-0.3,0.1h-3.3c-0.1,0-0.2,0-0.3-0.1
		c-0.1,0-0.2-0.1-0.2-0.2c-0.1-0.1-0.1-0.2-0.2-0.2c-0.1-0.1-0.1-0.2-0.1-0.3l-6.1-23.6H271l2.4,23.4c0,0.1,0,0.2,0,0.4
		c0,0.1-0.1,0.2-0.1,0.3c-0.1,0.1-0.1,0.2-0.2,0.2c-0.1,0.1-0.2,0.1-0.3,0.1h-1.4c-0.1,0-0.2,0-0.3-0.1c-0.1-0.1-0.2-0.1-0.3-0.2
		c-0.1-0.1-0.2-0.2-0.2-0.3c-0.1-0.1-0.1-0.2-0.1-0.4l-2.6-26.7c0-0.1,0-0.2,0-0.4c0-0.1,0.1-0.2,0.1-0.3c0.1-0.1,0.1-0.1,0.2-0.2
		c0.1,0,0.2-0.1,0.3,0l3.1,0.2c0.1,0,0.2,0,0.3,0.1c0.1,0,0.2,0.1,0.2,0.2c0.1,0.1,0.1,0.2,0.2,0.2c0.1,0.1,0.1,0.2,0.1,0.3
		l6.1,22.8h0.1l-2.4-22.4c0-0.1,0-0.2,0-0.3c0-0.2,0.2-0.4,0.3-0.4c0.1,0,0.2-0.1,0.3,0L278.3,22.5z"/>
	<path class="st0" d="M264.5,21.6c0.1,0,0.2,0,0.3,0.1c0.1,0,0.2,0.1,0.3,0.2c0.1,0.1,0.1,0.2,0.2,0.3c0,0.1,0.1,0.2,0.1,0.4
		l2.5,26.8c0,0.1,0,0.2,0,0.4c0,0.1-0.1,0.2-0.1,0.3c-0.1,0.1-0.1,0.2-0.2,0.2c-0.1,0.1-0.2,0.1-0.3,0.1h-1.8c-0.1,0-0.2,0-0.3-0.1
		c-0.1-0.1-0.2-0.1-0.3-0.2c-0.1-0.1-0.2-0.2-0.2-0.3c-0.1-0.1-0.1-0.2-0.1-0.4l-1-11.4c0-0.1,0-0.3-0.1-0.4c0-0.1-0.1-0.2-0.2-0.3
		c-0.1-0.1-0.2-0.2-0.3-0.2c-0.1-0.1-0.2-0.1-0.3-0.1l-3-0.1c-0.1,0-0.2,0-0.3,0.1c-0.1,0-0.2,0.1-0.2,0.2c-0.1,0.1-0.1,0.2-0.1,0.3
		c0,0.1,0,0.2,0,0.4l1,11.5c0,0.1,0,0.3,0,0.4c0,0.1-0.1,0.2-0.1,0.3c-0.1,0.1-0.1,0.2-0.2,0.2c-0.1,0.1-0.2,0.1-0.3,0.1h-1.9
		c-0.1,0-0.2,0-0.3-0.1c-0.1-0.1-0.2-0.1-0.3-0.2c-0.1-0.1-0.2-0.2-0.2-0.3c-0.1-0.1-0.1-0.2-0.1-0.4L254,21.9c0-0.1,0-0.2,0-0.4
		c0-0.1,0.1-0.2,0.1-0.3c0.1-0.1,0.1-0.1,0.2-0.2c0.1,0,0.2-0.1,0.3,0l1.8,0.1c0.1,0,0.2,0,0.3,0.1c0.1,0.1,0.2,0.1,0.3,0.2
		c0.1,0.1,0.2,0.2,0.2,0.3c0.1,0.1,0.1,0.2,0.1,0.4l0.9,10.4c0,0.1,0.1,0.3,0.1,0.4c0.1,0.1,0.1,0.2,0.2,0.3
		c0.2,0.2,0.4,0.3,0.6,0.3l3,0.1c0.1,0,0.2,0,0.3-0.1c0.1,0,0.2-0.1,0.2-0.2c0.1-0.1,0.1-0.2,0.1-0.3c0-0.1,0-0.2,0-0.4L262,22.4
		c0-0.1,0-0.2,0-0.4c0-0.1,0.1-0.2,0.1-0.3c0.1-0.1,0.1-0.1,0.2-0.2c0.1,0,0.2,0,0.3,0L264.5,21.6z"/>
	<path class="st0" d="M247.1,20.3c0.8,0,1.6,0.2,2.3,0.5c0.6,0.3,1.2,0.7,1.7,1.2c0.5,0.5,0.8,1.1,1.1,1.7c0.3,0.7,0.4,1.4,0.5,2.2
		l0.1,1.9c0,0.1,0,0.2,0,0.4c0,0.1-0.1,0.2-0.1,0.3c-0.1,0.1-0.2,0.1-0.2,0.2c-0.1,0-0.2,0.1-0.3,0.1l-1.7-0.1c-0.1,0-0.2,0-0.3-0.1
		c-0.1-0.1-0.2-0.1-0.3-0.2c-0.1-0.1-0.2-0.2-0.2-0.3c-0.1-0.1-0.1-0.2-0.1-0.4l-0.1-1.1c0-0.4-0.1-0.8-0.2-1.3
		c-0.1-0.4-0.2-0.7-0.4-1c-0.2-0.3-0.4-0.5-0.7-0.6c-0.3-0.2-0.7-0.3-1-0.3c-0.4,0-0.8,0-1.1,0.2c-0.3,0.2-0.5,0.5-0.6,0.9
		c-0.1,0.5-0.2,1-0.2,1.5c0,0.8,0,1.5,0.1,2.3l1.1,14.7c0,0.7,0.2,1.5,0.3,2.2c0.1,0.5,0.3,0.9,0.6,1.3c0.2,0.2,0.5,0.4,0.8,0.5
		c0.3,0.1,0.6,0.2,0.8,0.2c0.3,0,0.6-0.1,0.9-0.2c0.3-0.2,0.5-0.4,0.6-0.6c0.2-0.3,0.3-0.7,0.4-1.1c0.1-0.5,0.1-1.1,0-1.6l-0.1-1.1
		c0-0.1,0-0.3,0-0.4c0-0.1,0.1-0.2,0.2-0.3c0.1-0.1,0.2-0.2,0.2-0.2c0.1,0,0.2-0.1,0.3-0.1h1.7c0.1,0,0.2,0,0.3,0.1
		c0.1,0.1,0.2,0.1,0.3,0.2c0.1,0.1,0.2,0.2,0.2,0.3c0.1,0.1,0.1,0.2,0.1,0.4l0.2,2.3c0.1,0.7,0,1.5-0.1,2.2
		c-0.1,0.6-0.3,1.2-0.7,1.8c-0.4,0.5-0.9,0.9-1.5,1.2c-0.8,0.3-1.7,0.4-2.6,0.4c-1,0-2-0.2-2.9-0.5c-0.8-0.3-1.5-0.8-2-1.5
		c-0.5-0.7-1-1.5-1.2-2.4c-0.3-1-0.5-2.1-0.5-3.2l-1-15.2c-0.1-1-0.1-2,0.1-2.9c0.1-0.8,0.4-1.7,0.8-2.4c0.4-0.7,1-1.2,1.7-1.6
		C245.1,20.4,246.1,20.2,247.1,20.3z"/>
	<path class="st0" d="M240.4,46.2c0,0.2,0,0.4,0,0.6s0,0.5,0.1,0.7s0,0.5,0.1,0.7s0.1,0.5,0.1,0.8c0,0.1,0,0.3,0,0.4
		c0,0.1-0.1,0.2-0.2,0.3c-0.1,0.1-0.2,0.2-0.3,0.2c-0.1,0.1-0.2,0.1-0.4,0.1H238c-0.1,0-0.2,0-0.3,0c-0.2-0.1-0.3-0.2-0.5-0.4
		c-0.1-0.1-0.1-0.2-0.1-0.3c0-0.2-0.1-0.3-0.1-0.5c0-0.2-0.1-0.3-0.1-0.5c0-0.2,0-0.4-0.1-0.5s0-0.4-0.1-0.6l-0.4-7
		c0-0.6-0.1-1.2-0.2-1.8c-0.1-0.4-0.2-0.8-0.5-1.1c-0.2-0.3-0.6-0.5-0.9-0.6c-0.5-0.1-1-0.2-1.5-0.2h-1.3l0.7,12.5
		c0,0.1,0,0.3-0.1,0.4c0,0.1-0.1,0.2-0.2,0.3c-0.1,0.1-0.2,0.2-0.3,0.2c-0.1,0.1-0.2,0.1-0.4,0.1h-2.1c-0.1,0-0.2,0-0.4-0.1
		c-0.1-0.1-0.2-0.1-0.3-0.2c-0.1-0.1-0.2-0.2-0.2-0.3c-0.1-0.1-0.1-0.3-0.1-0.4l-1.6-28.7c0-0.1,0-0.2,0-0.4c0-0.1,0.1-0.2,0.2-0.3
		c0.1-0.1,0.2-0.1,0.3-0.2c0.1,0,0.2-0.1,0.3,0l5,0.3c1.1,0,2.2,0.2,3.2,0.5c0.7,0.2,1.4,0.7,1.9,1.3c0.5,0.8,0.8,1.6,0.9,2.5
		c0.2,1.3,0.4,2.7,0.4,4c0.1,0.9,0.1,1.7,0.1,2.6c0,0.6-0.2,1.3-0.4,1.9c-0.2,0.5-0.6,1-1,1.3c-0.5,0.4-1.1,0.7-1.8,0.9v0.1
		c0.6,0.1,1.1,0.2,1.6,0.5c0.4,0.2,0.8,0.5,1.1,0.9c0.3,0.4,0.5,0.9,0.7,1.4c0.2,0.6,0.3,1.3,0.3,1.9L240.4,46.2z M232.6,33.1
		c0.6,0,1.2,0,1.8-0.1c0.4-0.1,0.8-0.3,1-0.7c0.2-0.5,0.4-1,0.4-1.5c0-0.9,0-1.8-0.1-2.7c-0.1-1.1-0.1-2-0.2-2.6
		c-0.1-0.5-0.2-1-0.4-1.5c-0.2-0.3-0.5-0.6-0.8-0.7c-0.4-0.1-0.9-0.2-1.4-0.2l-0.9,0c-0.1,0-0.2,0-0.3,0c-0.1,0-0.2,0.1-0.3,0.2
		c-0.1,0.1-0.1,0.2-0.2,0.3c0,0.1,0,0.2,0,0.4l0.5,9L232.6,33.1"/>
	<path class="st0" d="M217.7,18.5c1.1,0,2.2,0.3,3.2,0.7c0.8,0.3,1.6,0.9,2.1,1.6c0.6,0.7,1,1.5,1.2,2.4c0.3,1,0.5,2.1,0.5,3.2
		l0.8,15.6c0.1,1,0,2.1-0.1,3.1c-0.1,0.9-0.4,1.8-0.9,2.6c-0.5,0.8-1.2,1.4-2,1.8c-1.1,0.5-2.2,0.7-3.4,0.7c-1.1,0-2.3-0.2-3.3-0.6
		c-0.9-0.3-1.6-0.9-2.2-1.6c-0.6-0.8-1-1.6-1.3-2.5c-0.3-1.1-0.5-2.2-0.5-3.4l-0.6-16c-0.1-1,0-2.1,0.2-3.1c0.2-0.9,0.5-1.8,1-2.5
		c0.5-0.7,1.2-1.3,2-1.6C215.4,18.6,216.6,18.4,217.7,18.5z M221.6,42.7l-0.8-16.3c0-0.7-0.1-1.3-0.3-2c-0.1-0.5-0.3-1-0.6-1.4
		c-0.2-0.4-0.5-0.6-0.9-0.9c-0.4-0.2-0.8-0.3-1.2-0.3c-0.4,0-0.8,0-1.2,0.2c-0.3,0.2-0.6,0.4-0.8,0.8c-0.2,0.4-0.4,0.9-0.5,1.4
		c-0.1,0.7-0.1,1.3-0.1,2l0.7,16.5c0,0.6,0.1,1.2,0.3,1.8c0.1,0.5,0.3,0.9,0.6,1.3c0.2,0.3,0.6,0.6,0.9,0.8c0.4,0.2,0.7,0.3,1.1,0.3
		c0.8,0.1,1.6-0.3,2-1c0.3-0.4,0.4-0.8,0.5-1.3C221.6,43.9,221.6,43.3,221.6,42.7"/>
	<path class="st0" d="M208.1,18.2c0.2,0,0.3,0.1,0.5,0.2c0.1,0.1,0.3,0.2,0.4,0.4c0.1,0.1,0.1,0.3,0.2,0.5c0,0.2,0,0.3-0.1,0.5
		l-5.6,12.5c0,0.1-0.1,0.1-0.1,0.2c0,0.1,0,0.2,0,0.2c0,0.1,0,0.2,0,0.2c0,0.1,0,0.2,0.1,0.2l7.2,15.3c0.1,0.2,0.1,0.3,0.1,0.5
		c0,0.2-0.1,0.3-0.1,0.5c-0.1,0.1-0.2,0.3-0.3,0.3c-0.1,0.1-0.3,0.1-0.5,0.1h-2.5c-0.1,0-0.2,0-0.3,0c-0.1,0-0.2-0.1-0.3-0.1
		c-0.1-0.1-0.2-0.1-0.2-0.2c-0.1-0.1-0.1-0.2-0.2-0.3l-6.9-15.8h-0.1l0.4,15.3c0,0.3-0.1,0.6-0.3,0.8c-0.1,0.1-0.2,0.2-0.3,0.2
		c-0.1,0.1-0.3,0.1-0.4,0.1h-2.3c-0.1,0-0.3,0-0.4-0.1c-0.1-0.1-0.2-0.1-0.3-0.2c-0.1-0.1-0.2-0.2-0.2-0.3c-0.1-0.1-0.1-0.3-0.1-0.4
		l-0.6-30.3c0-0.3,0.1-0.5,0.3-0.7c0.1-0.1,0.2-0.2,0.3-0.2c0.1-0.1,0.3-0.1,0.4-0.1l2.2,0.1c0.1,0,0.3,0,0.4,0.1
		c0.1,0.1,0.2,0.1,0.3,0.2c0.1,0.1,0.2,0.2,0.2,0.3c0.1,0.1,0.1,0.3,0.1,0.4l0.4,13.4h0.1l5.9-13.5c0-0.1,0.1-0.2,0.1-0.2
		c0.1-0.1,0.1-0.1,0.2-0.2c0.1,0,0.2-0.1,0.2-0.1c0.1,0,0.2,0,0.3,0L208.1,18.2z"/>
	<path class="st0" d="M139.3,17.4c0.5,0,1.1,0.1,1.5,0.4c0.4,0.2,0.8,0.6,1.1,1c0.3,0.5,0.5,1,0.6,1.6c0.1,0.7,0.2,1.5,0.1,2.2
		l-0.6,18.5c0,0.7-0.1,1.4-0.3,2c-0.2,0.5-0.4,1-0.8,1.5c-0.3,0.4-0.7,0.7-1.2,0.9c-0.5,0.2-1,0.3-1.5,0.3c-0.5,0-1-0.1-1.5-0.3
		c-0.4-0.2-0.8-0.5-1.1-0.9c-0.3-0.5-0.5-1-0.7-1.5c-0.2-0.7-0.2-1.4-0.2-2.1l0.8-18.7c0-0.8,0.1-1.5,0.3-2.2
		c0.1-0.6,0.4-1.1,0.7-1.5c0.3-0.4,0.7-0.7,1.1-0.9C138.3,17.5,138.8,17.4,139.3,17.4z"/>
	<path class="st0" d="M118.1,16.8c0.7,0,1.5,0.1,2.2,0.3c0.5,0.1,0.9,0.4,1.2,0.8c0.3,0.6,0.4,1.2,0.4,1.8c0,1.1,0,2.1-0.1,3.2
		c0,1.1-0.1,2.1-0.3,3.2c-0.1,0.7-0.3,1.3-0.6,1.8c-0.3,0.4-0.8,0.7-1.3,0.7c-0.7,0.1-1.5,0.1-2.2,0.1l-1.6-0.1
		c-0.2,0-0.3,0-0.5-0.1c-0.1-0.1-0.3-0.1-0.4-0.3c-0.1-0.1-0.2-0.2-0.2-0.4c-0.1-0.1-0.1-0.3-0.1-0.5l0.6-9.6c0-0.2,0.1-0.3,0.1-0.5
		c0.1-0.1,0.2-0.3,0.3-0.4c0.1-0.1,0.3-0.2,0.4-0.2c0.2-0.1,0.3-0.1,0.5-0.1L118.1,16.8z"/>
	<path class="st0" d="M96.1,15.6c0.7,0,1.4,0.1,2.1,0.3c0.5,0.1,0.9,0.4,1.1,0.8c0.3,0.6,0.4,1.2,0.4,1.8c0,0.8,0,1.9-0.1,3.2
		c-0.1,1.1-0.2,2.2-0.4,3.3c-0.1,0.7-0.4,1.4-0.9,1.9c-0.4,0.5-1,0.7-1.7,0.8c-0.9,0.1-1.9,0.2-2.8,0.1l-1.5-0.1l1-11.2
		c0-0.2,0.1-0.3,0.2-0.5c0.1-0.1,0.2-0.3,0.3-0.4c0.1-0.1,0.3-0.2,0.4-0.2c0.2-0.1,0.4-0.1,0.5-0.1L96.1,15.6z"/>
	<path class="st0" d="M71.8,15.5l1.8,17.2c0,0.2,0,0.4-0.1,0.6c-0.1,0.2-0.2,0.3-0.3,0.5c-0.2,0.1-0.3,0.2-0.5,0.3
		c-0.2,0.1-0.4,0.1-0.7,0.1L67.5,34c-0.2,0-0.4-0.1-0.6-0.2c-0.2-0.1-0.3-0.2-0.5-0.3c-0.1-0.1-0.2-0.3-0.2-0.5c0-0.2,0-0.4,0-0.6
		l5.5-17L71.8,15.5z"/>
	<path class="st0" d="M182.5,11.8c0.1,0,0.3,0,0.4,0.1c0.1,0.1,0.2,0.1,0.3,0.2c0.1,0.1,0.2,0.2,0.2,0.3c0.1,0.1,0.1,0.3,0.1,0.4
		l0.4,40.7c0,0.1,0,0.3-0.1,0.4c0,0.1-0.1,0.3-0.2,0.4c-0.2,0.2-0.5,0.3-0.8,0.3L1.6,54.7c-0.2,0-0.5,0-0.7-0.1
		c-0.2-0.1-0.4-0.2-0.5-0.3c-0.1-0.1-0.2-0.3-0.3-0.5c-0.1-0.2-0.1-0.4,0-0.6L9.2,1.2c0-0.2,0.1-0.4,0.2-0.5
		c0.1-0.2,0.3-0.3,0.4-0.4c0.2-0.1,0.4-0.2,0.6-0.2c0.2,0,0.4,0,0.7,0L182.5,11.8z M79.7,49c0.2,0,0.4,0,0.7-0.1
		c0.2-0.1,0.4-0.2,0.5-0.3c0.1-0.1,0.3-0.3,0.3-0.5c0.1-0.2,0.1-0.4,0.1-0.6l-4.9-36.3c0-0.1-0.1-0.3-0.2-0.4
		c-0.1-0.1-0.2-0.2-0.3-0.3c-0.1-0.1-0.3-0.2-0.4-0.2c-0.2-0.1-0.3-0.1-0.5-0.1l-4.8-0.3c-0.2,0-0.3,0-0.5,0
		c-0.3,0.1-0.6,0.2-0.8,0.4c-0.1,0.1-0.2,0.2-0.2,0.4L54.9,47.2c-0.1,0.4-0.1,0.8,0.2,1.1c0.1,0.2,0.3,0.3,0.5,0.4
		c0.2,0.1,0.4,0.1,0.7,0.1h3.4c0.2,0,0.4,0,0.5-0.1c0.2-0.1,0.3-0.1,0.5-0.2c0.1-0.1,0.3-0.2,0.4-0.3c0.1-0.1,0.2-0.3,0.2-0.4
		l2.6-8.1c0.1-0.2,0.1-0.3,0.2-0.4c0.1-0.1,0.2-0.2,0.4-0.3c0.1-0.1,0.3-0.2,0.5-0.2c0.2,0,0.4-0.1,0.5-0.1l7.4,0.2
		c0.2,0,0.3,0,0.5,0.1c0.2,0.1,0.3,0.1,0.4,0.2c0.1,0.1,0.2,0.2,0.3,0.3c0.1,0.1,0.1,0.3,0.1,0.4l0.8,8c0,0.2,0.1,0.3,0.1,0.4
		c0.1,0.1,0.2,0.3,0.3,0.3c0.1,0.1,0.3,0.2,0.4,0.2c0.2,0.1,0.3,0.1,0.5,0.1h3.2 M168.1,17c0-0.2,0-0.3,0-0.5c0-0.2-0.1-0.3-0.2-0.4
		c-0.2-0.3-0.5-0.4-0.9-0.4l-2.4-0.1c-0.1,0-0.3,0-0.4,0c-0.2,0.1-0.4,0.2-0.6,0.4c-0.1,0.1-0.1,0.2-0.1,0.3l-5.2,26h-0.1l-4.4-26.5
		c0-0.1-0.1-0.2-0.1-0.4c-0.1-0.2-0.3-0.4-0.6-0.5c-0.1-0.1-0.3-0.1-0.4-0.1l-2.5-0.1c-0.2,0-0.3,0-0.5,0.1
		c-0.1,0.1-0.3,0.2-0.4,0.3c-0.1,0.1-0.2,0.2-0.2,0.4c0,0.2,0,0.3,0,0.5l6.1,32.7c0,0.1,0.1,0.3,0.1,0.4c0.1,0.1,0.2,0.2,0.3,0.3
		c0.1,0.1,0.2,0.1,0.3,0.2c0.1,0.1,0.3,0.1,0.4,0.1h3.8c0.1,0,0.3,0,0.4-0.1c0.1,0,0.2-0.1,0.3-0.2c0.1-0.1,0.2-0.2,0.2-0.3
		c0.1-0.1,0.1-0.2,0.1-0.4L168.1,17 M51.2,48.8c0.3,0,0.5-0.1,0.8-0.2c0.2-0.1,0.4-0.3,0.6-0.5c0.2-0.2,0.3-0.4,0.3-0.6
		c0-0.2,0-0.5-0.1-0.7l-8.2-19.4c0-0.1-0.1-0.2-0.1-0.3c0-0.2,0-0.4,0.1-0.6c0-0.1,0.1-0.2,0.2-0.3l11.7-15.6
		c0.1-0.2,0.2-0.4,0.2-0.6c0-0.2,0-0.4-0.2-0.6c-0.1-0.2-0.3-0.3-0.5-0.4c-0.2-0.1-0.5-0.2-0.7-0.2l-3.1-0.2c-0.1,0-0.3,0-0.4,0
		c-0.1,0-0.3,0.1-0.4,0.1c-0.1,0.1-0.2,0.1-0.4,0.2c-0.1,0.1-0.2,0.2-0.3,0.3L38.3,26.1h-0.1l2.4-16.8c0-0.2,0-0.3-0.1-0.5
		c-0.1-0.2-0.1-0.3-0.3-0.4C40.1,8.2,40,8.1,39.8,8c-0.2-0.1-0.4-0.1-0.6-0.1l-3.6-0.2c-0.2,0-0.4,0-0.6,0.1c-0.2,0-0.4,0.1-0.5,0.2
		c-0.2,0.1-0.3,0.2-0.4,0.4c-0.1,0.1-0.2,0.3-0.2,0.5l-5.7,38.3c0,0.2,0,0.4,0,0.5c0.1,0.2,0.2,0.3,0.3,0.5c0.1,0.1,0.3,0.2,0.5,0.3
		c0.2,0.1,0.4,0.1,0.6,0.1h3.8c0.2,0,0.4,0,0.7-0.1c0.2-0.1,0.4-0.2,0.6-0.3c0.2-0.1,0.3-0.3,0.4-0.4c0.1-0.2,0.2-0.3,0.2-0.5
		L38,27.9h0.1l7.7,20c0.1,0.1,0.1,0.2,0.2,0.3c0.1,0.1,0.2,0.2,0.3,0.3c0.1,0.1,0.3,0.1,0.4,0.2c0.2,0,0.3,0.1,0.5,0.1L51.2,48.8
		 M147.2,40.3l0.5-17.7c0.1-1.2-0.1-2.4-0.3-3.6c-0.3-1-0.7-1.9-1.4-2.7c-0.7-0.8-1.6-1.4-2.6-1.8c-1.3-0.5-2.6-0.8-4-0.8
		c-1.5-0.1-2.9,0-4.3,0.5c-1.1,0.3-2,1-2.8,1.8c-0.7,0.8-1.2,1.8-1.5,2.8c-0.3,1.1-0.5,2.3-0.5,3.5l-0.8,18.1
		c-0.1,1.3,0,2.6,0.3,3.8c0.2,1.1,0.7,2.1,1.4,2.9c0.7,0.8,1.7,1.5,2.7,1.8c1.4,0.5,2.8,0.7,4.2,0.7c1.5,0,3-0.2,4.4-0.8
		c1.1-0.4,2-1.1,2.8-2.1c0.7-0.9,1.2-1.9,1.4-3C147,42.7,147.2,41.5,147.2,40.3 M117.9,33c1.5,0.1,3.1,0,4.6-0.3
		c1-0.2,2-0.7,2.8-1.5c0.7-0.9,1.2-1.9,1.4-3.1c0.3-1.6,0.5-3.3,0.6-5c0.1-1.7,0.1-3.3-0.1-5c-0.1-1.1-0.5-2.2-1.1-3.1
		c-0.7-0.8-1.5-1.4-2.5-1.6c-1.4-0.4-2.9-0.6-4.4-0.7l-7.7-0.5c-0.2,0-0.3,0-0.5,0.1c-0.2,0-0.3,0.1-0.4,0.2
		c-0.1,0.1-0.2,0.2-0.3,0.4c-0.1,0.1-0.1,0.3-0.1,0.4l-2.3,34.5c0,0.2,0,0.3,0.1,0.5c0.1,0.2,0.1,0.3,0.3,0.4
		c0.1,0.1,0.3,0.2,0.4,0.3c0.2,0.1,0.3,0.1,0.5,0.1h3c0.4,0,0.7-0.1,1-0.4c0.1-0.1,0.2-0.2,0.3-0.4c0.1-0.2,0.1-0.3,0.1-0.5
		l0.8-13.8c0-0.2,0.1-0.3,0.1-0.5c0.1-0.1,0.2-0.3,0.3-0.4c0.1-0.1,0.3-0.2,0.4-0.2c0.2-0.1,0.3-0.1,0.5-0.1L117.9,33 M104.1,36
		c0.1-0.8,0-1.6-0.1-2.3c-0.1-0.6-0.4-1.2-0.8-1.7c-0.4-0.5-0.9-0.9-1.5-1.2c-0.8-0.3-1.6-0.5-2.4-0.6V30c1-0.2,2.1-0.6,3-1.1
		c0.7-0.4,1.3-0.9,1.8-1.6c0.5-0.7,0.8-1.5,0.9-2.3c0.2-1.1,0.4-2.1,0.4-3.2c0.2-1.6,0.2-3.3,0.1-4.9c0-1.1-0.4-2.2-1-3.1
		c-0.7-0.8-1.6-1.4-2.6-1.7c-1.6-0.4-3.3-0.7-4.9-0.7L89.2,11c-0.2,0-0.4,0-0.5,0.1c-0.2,0-0.3,0.1-0.5,0.2
		c-0.1,0.1-0.2,0.2-0.3,0.4c-0.1,0.1-0.1,0.3-0.2,0.5l-3.2,35.6c0,0.2,0,0.3,0.1,0.5c0.1,0.2,0.2,0.3,0.3,0.4
		c0.1,0.1,0.3,0.2,0.4,0.3c0.2,0.1,0.4,0.1,0.6,0.1h3.2c0.4,0,0.7-0.1,1-0.4c0.1-0.1,0.3-0.2,0.3-0.4c0.1-0.2,0.1-0.3,0.2-0.5
		l1.3-15.5l2,0.1c0.8,0,1.6,0.1,2.3,0.3c0.5,0.1,1,0.4,1.3,0.8c0.3,0.4,0.5,0.9,0.6,1.4c0.1,0.7,0.1,1.5,0,2.2l-0.7,8.7
		c0,0.3,0,0.5,0,0.8s0,0.5,0,0.7s0,0.4,0,0.6c0,0.2,0.1,0.4,0.1,0.6c0,0.1,0.1,0.2,0.2,0.3c0.1,0.1,0.2,0.2,0.3,0.3
		c0.1,0.1,0.2,0.1,0.4,0.2c0.1,0,0.3,0.1,0.4,0.1h3c0.2,0,0.4,0,0.6-0.1c0.2-0.1,0.3-0.2,0.5-0.3c0.1-0.1,0.2-0.3,0.3-0.4
		c0.1-0.2,0.1-0.3,0.1-0.5c0-0.3,0-0.6,0-0.9v-0.9c0-0.3,0-0.6,0.1-0.9s0-0.5,0-0.8"/>
</g>
<g>
	<path d="M2.7,92l3,9.1l3-9.1h2.4L7,103.5H4.3L0,92H2.7z"/>
	<path d="M12,92h2.5v2.1H12V92z M12.1,95.4h2.4v8.1h-2.4V95.4z"/>
	<path d="M18.2,101.2c0,0.5,0.4,1.1,1.3,1.1c0.8,0,1.2-0.5,1.2-1c0-0.4-0.2-0.7-1.1-0.9l-1.5-0.4c-0.7-0.2-2-0.6-2-2.2
		c0-1.6,1.4-2.5,3.5-2.5c1.7,0,3,0.8,3.1,2.4h-2.2c-0.1-0.9-0.8-1-1.2-1c-0.6,0-1.1,0.3-1.1,0.8c0,0.5,0.4,0.7,1.1,0.8l1.5,0.4
		c1.5,0.4,2.2,1.2,2.2,2.3c0,1.4-1.2,2.8-3.7,2.8c-1,0-2-0.2-2.8-1c-0.5-0.6-0.6-1.2-0.6-1.6H18.2z"/>
	<path d="M26.9,95.5v4.8c0,0.7,0,1.8,1.3,1.8c1.5,0,1.5-1.1,1.5-2.5v-4.1h2.4v5.3c0,1.7,0,2,0,2.2c0,0.2,0,0.4,0.1,0.6h-2.3
		l-0.1-1.1c-0.2,0.4-0.8,1.3-2.4,1.3c-1.1,0-2-0.5-2.4-1.1c-0.5-0.7-0.5-1.8-0.5-2.2v-5H26.9z"/>
	<path d="M39.2,103.5c-0.1-0.5-0.1-0.9-0.1-1.1c-0.9,1.3-2,1.3-2.4,1.3c-1.2,0-1.7-0.3-2-0.6c-0.5-0.5-0.7-1.1-0.7-1.8
		c0-0.6,0.2-1.8,1.7-2.5c1-0.4,2.4-0.4,3.2-0.4c0-0.5,0-0.8-0.1-1.1c-0.2-0.6-0.8-0.7-1.1-0.7c-0.3,0-0.7,0.1-0.9,0.4
		c-0.2,0.3-0.2,0.5-0.2,0.7h-2.3c0-0.4,0.1-1.3,0.9-1.9c0.7-0.5,1.7-0.7,2.4-0.7c0.7,0,2.1,0.1,2.9,1c0.5,0.7,0.6,1.6,0.6,2l0,3.2
		c0,0.7,0,1.4,0.2,2H39.2z M36.2,101c0,0.5,0.4,1.2,1.2,1.2c0.4,0,0.8-0.2,1-0.5c0.4-0.5,0.4-1.1,0.4-2
		C37.3,99.6,36.2,100.1,36.2,101z"/>
	<path d="M43.2,92h2.4v11.6h-2.4V92z"/>
	<path d="M47.6,92h2.5v2.1h-2.5V92z M47.7,95.4H50v8.1h-2.4V95.4z"/>
	<path d="M51.6,101.5l4.1-4.4h-4v-1.6h6.6v2l-4.1,4.4h4.3v1.6h-6.9V101.5z"/>
	<path d="M60,92h2.5v2.1H60V92z M60.1,95.4h2.4v8.1h-2.4V95.4z"/>
	<path d="M64.6,96.9c0,0,0-0.9,0-1.5h2.3l0.1,1.2c0.2-0.4,0.9-1.4,2.6-1.4c1.6,0,2.3,1,2.5,1.5c0.2,0.5,0.2,0.9,0.2,2.4v4.4h-2.4v-5
		c0-0.3,0-0.6-0.1-0.9c-0.2-0.4-0.5-0.7-1.2-0.7c-0.5,0-1,0.2-1.2,0.6c-0.1,0.2-0.3,0.6-0.3,1.2v4.7h-2.4V96.9z"/>
	<path d="M82,95.5c-0.1,0.6-0.1,1.2-0.1,2v6c0,3-2.5,3.3-4,3.3c-1.2,0-3.4-0.1-3.6-2.6h2.3c0,0.2,0.1,1.1,1.4,1.1
		c0.7,0,1.3-0.3,1.5-1.1c0.1-0.4,0.1-0.7,0.1-1.9c-0.8,1-1.6,1.1-2.2,1.1c-2.3,0-3.4-2-3.4-4c0-2,1.1-4,3.5-4c1.5,0,2,0.8,2.3,1.2
		l0.1-1.1H82z M77.9,101.8c1.7,0,1.7-2,1.7-2.3c0-0.9-0.2-2.5-1.6-2.5c-0.9,0-1.6,0.7-1.6,2.4C76.3,99.8,76.3,101.8,77.9,101.8z"/>
	<path d="M95.1,95.8c0-0.4-0.2-2-1.9-2c-1.8,0-2.6,1.9-2.6,4.3c0,0.7,0,4,2.4,4c1,0,2-0.7,2.1-2.2h2.6c0,0.7-0.1,1.8-1,2.7
		c-1,1.1-2.3,1.3-3.4,1.3c-4,0-5.3-2.9-5.3-5.8c0-3.7,2-6.1,5.3-6.1c2.5,0,4.3,1.5,4.3,3.8H95.1z"/>
	<path d="M99.3,92h2.4v4.6c0.3-0.4,0.9-1.2,2.3-1.2c1.2,0,2,0.6,2.4,1.1c0.3,0.4,0.5,1.1,0.5,2.2v4.9h-2.4v-4.8c0-0.5,0-1.8-1.3-1.8
		c-0.7,0-1.5,0.4-1.5,1.6l0,4.9h-2.4V92z"/>
	<path d="M110.9,100.1c0,0.5,0,2.2,1.6,2.2c0.6,0,1.2-0.2,1.4-1.1h2.2c0,0.4-0.1,1.1-0.8,1.8c-0.6,0.6-1.6,0.9-2.8,0.9
		c-0.7,0-2-0.1-2.8-1c-0.7-0.8-1-1.9-1-3.2c0-1.3,0.3-2.9,1.7-3.8c0.6-0.4,1.4-0.7,2.3-0.7c1.2,0,2.5,0.4,3.3,2
		c0.5,1.1,0.5,2.3,0.5,3H110.9z M113.9,98.6c0-0.4,0-1.8-1.4-1.8c-1,0-1.5,0.9-1.5,1.8H113.9z"/>
	<path d="M119.5,101.2c0,0.5,0.4,1.1,1.3,1.1c0.8,0,1.2-0.5,1.2-1c0-0.4-0.2-0.7-1.1-0.9l-1.5-0.4c-0.7-0.2-2-0.6-2-2.2
		c0-1.6,1.4-2.5,3.5-2.5c1.7,0,3,0.8,3.1,2.4h-2.2c-0.1-0.9-0.8-1-1.2-1c-0.6,0-1.1,0.3-1.1,0.8c0,0.5,0.4,0.7,1.1,0.8l1.5,0.4
		c1.5,0.4,2.2,1.2,2.2,2.3c0,1.4-1.2,2.8-3.7,2.8c-1,0-2-0.2-2.8-1c-0.5-0.6-0.6-1.2-0.6-1.6H119.5z"/>
	<path d="M127.5,101.2c0,0.5,0.4,1.1,1.3,1.1c0.8,0,1.2-0.5,1.2-1c0-0.4-0.2-0.7-1.1-0.9l-1.5-0.4c-0.7-0.2-2-0.6-2-2.2
		c0-1.6,1.4-2.5,3.5-2.5c1.7,0,3,0.8,3.1,2.4h-2.2c-0.1-0.9-0.8-1-1.2-1c-0.6,0-1.1,0.3-1.1,0.8c0,0.5,0.4,0.7,1.1,0.8l1.5,0.4
		c1.5,0.4,2.2,1.2,2.2,2.3c0,1.4-1.2,2.8-3.7,2.8c-1,0-2-0.2-2.8-1c-0.5-0.6-0.6-1.2-0.6-1.6H127.5z"/>
	<path d="M136.9,101.4l-1.9,3.9h-1.6l1.2-3.9H136.9z"/>
	<path d="M142.4,92h3.6c1.7,0,3.1,0.1,4,1.3c0.6,0.7,0.7,1.6,0.7,2.2c0,1.3-0.6,2.5-1.5,3.1c-0.8,0.5-2,0.5-2.6,0.5h-1.7v4.5h-2.5
		V92z M144.8,97.2h1c0.8,0,2.3,0,2.3-1.8c0-1.6-1.3-1.6-2-1.6h-1.2V97.2z"/>
	<path d="M156.4,103.5c-0.1-0.5-0.1-0.9-0.1-1.1c-0.9,1.3-2,1.3-2.4,1.3c-1.2,0-1.7-0.3-2-0.6c-0.5-0.5-0.7-1.1-0.7-1.8
		c0-0.6,0.2-1.8,1.7-2.5c1-0.4,2.4-0.4,3.2-0.4c0-0.5,0-0.8-0.1-1.1c-0.2-0.6-0.8-0.7-1.1-0.7c-0.3,0-0.7,0.1-0.9,0.4
		c-0.2,0.3-0.2,0.5-0.2,0.7h-2.3c0-0.4,0.1-1.3,0.9-1.9c0.7-0.5,1.7-0.7,2.4-0.7c0.7,0,2.1,0.1,2.9,1c0.5,0.7,0.6,1.6,0.6,2l0,3.2
		c0,0.7,0,1.4,0.2,2H156.4z M153.5,101c0,0.5,0.4,1.2,1.2,1.2c0.4,0,0.8-0.2,1-0.5c0.4-0.5,0.4-1.1,0.4-2
		C154.6,99.6,153.5,100.1,153.5,101z"/>
	<path d="M165.2,103.4c-0.8,0.2-1.5,0.3-1.8,0.3c-2.4,0-2.4-1.5-2.4-2.2v-4.4h-1.6v-1.6h1.6v-1.6l2.4-0.9v2.4h1.9v1.6h-1.9v3.6
		c0,0.7,0,1.2,1.1,1.2c0.4,0,0.5,0,0.8,0V103.4z"/>
	<path d="M171,103.4c-0.8,0.2-1.5,0.3-1.8,0.3c-2.4,0-2.4-1.5-2.4-2.2v-4.4h-1.6v-1.6h1.6v-1.6l2.4-0.9v2.4h1.9v1.6h-1.9v3.6
		c0,0.7,0,1.2,1.1,1.2c0.4,0,0.5,0,0.8,0V103.4z"/>
	<path d="M174.1,100.1c0,0.5,0,2.2,1.6,2.2c0.6,0,1.2-0.2,1.4-1.1h2.2c0,0.4-0.1,1.1-0.8,1.8c-0.6,0.6-1.6,0.9-2.8,0.9
		c-0.7,0-2-0.1-2.8-1c-0.7-0.8-1-1.9-1-3.2c0-1.3,0.3-2.9,1.7-3.8c0.6-0.4,1.4-0.7,2.3-0.7c1.2,0,2.5,0.4,3.3,2
		c0.5,1.1,0.5,2.3,0.5,3H174.1z M177.1,98.6c0-0.4,0-1.8-1.4-1.8c-1,0-1.5,0.9-1.5,1.8H177.1z"/>
	<path d="M181.1,97.4c0-0.4-0.1-1.6-0.1-2h2.2l0,1.6c0.3-0.7,0.8-1.7,2.8-1.6v2.1c-2.4-0.2-2.5,1-2.5,2v4h-2.4V97.4z"/>
	<path d="M186.7,96.9c0,0,0-0.9,0-1.5h2.3l0.1,1.2c0.2-0.4,0.9-1.4,2.6-1.4c1.6,0,2.3,1,2.5,1.5c0.2,0.5,0.2,0.9,0.2,2.4v4.4h-2.4
		v-5c0-0.3,0-0.6-0.1-0.9c-0.2-0.4-0.5-0.7-1.2-0.7c-0.5,0-1,0.2-1.2,0.6c-0.1,0.2-0.3,0.6-0.3,1.2v4.7h-2.4V96.9z"/>
	<path d="M198.1,101.2c0,0.5,0.4,1.1,1.3,1.1c0.8,0,1.2-0.5,1.2-1c0-0.4-0.2-0.7-1.1-0.9l-1.5-0.4c-0.7-0.2-2-0.6-2-2.2
		c0-1.6,1.4-2.5,3.5-2.5c1.7,0,3,0.8,3.1,2.4h-2.2c-0.1-0.9-0.8-1-1.2-1c-0.6,0-1.1,0.3-1.1,0.8c0,0.5,0.4,0.7,1.1,0.8l1.5,0.4
		c1.5,0.4,2.2,1.2,2.2,2.3c0,1.4-1.2,2.8-3.7,2.8c-1,0-2-0.2-2.8-1c-0.5-0.6-0.6-1.2-0.6-1.6H198.1z"/>
	<path d="M219.1,96.4c0,1.9-0.3,3.3-1.3,4.8l2.4,2.4h-3l-0.9-1.1c-0.7,0.6-1.8,1.3-3.7,1.3c-2.5,0-4.4-1.3-4.4-3.5
		c0-0.6,0.1-1.4,0.8-2.3c0.6-0.7,1.2-1.1,1.6-1.3c-0.4-0.3-1.4-1.1-1.4-2.4c0-0.7,0.4-2.6,3.5-2.6c3,0,3.5,1.7,3.5,2.5
		c0,1.8-1.6,2.7-2.2,3l2.3,2.4c0.4-1.2,0.5-2,0.5-3.2H219.1z M211.9,98.3c-0.7,0.5-1.2,1-1.2,1.9c0,1.2,1,1.9,2,1.9
		c0.8,0,1.6-0.4,2.1-0.9L211.9,98.3z M213.9,94.3c0-0.6-0.4-1.1-1.2-1.1c-0.7,0-1.2,0.4-1.2,1c0,0.7,1,1.6,1.2,1.7
		C213.1,95.7,213.9,95,213.9,94.3z"/>
	<path d="M225.8,92h3.6c1.7,0,3.1,0.1,4,1.3c0.6,0.7,0.7,1.6,0.7,2.2c0,1.3-0.6,2.5-1.5,3.1c-0.8,0.5-2,0.5-2.6,0.5h-1.7v4.5h-2.5
		V92z M228.2,97.2h1c0.8,0,2.3,0,2.3-1.8c0-1.6-1.3-1.6-2-1.6h-1.2V97.2z"/>
	<path d="M239.8,103.5c-0.1-0.5-0.1-0.9-0.1-1.1c-0.9,1.3-2,1.3-2.4,1.3c-1.2,0-1.7-0.3-2-0.6c-0.5-0.5-0.7-1.1-0.7-1.8
		c0-0.6,0.2-1.8,1.7-2.5c1-0.4,2.4-0.4,3.2-0.4c0-0.5,0-0.8-0.1-1.1c-0.2-0.6-0.8-0.7-1.1-0.7c-0.3,0-0.7,0.1-0.9,0.4
		c-0.2,0.3-0.2,0.5-0.2,0.7h-2.3c0-0.4,0.1-1.3,0.9-1.9c0.7-0.5,1.7-0.7,2.4-0.7c0.7,0,2.1,0.1,2.9,1c0.5,0.7,0.6,1.6,0.6,2l0,3.2
		c0,0.7,0,1.4,0.2,2H239.8z M236.8,101c0,0.5,0.4,1.2,1.2,1.2c0.4,0,0.8-0.2,1-0.5c0.4-0.5,0.4-1.1,0.4-2
		C237.9,99.6,236.8,100.1,236.8,101z"/>
	<path d="M243.8,97.4c0-0.4-0.1-1.6-0.1-2h2.2l0,1.6c0.3-0.7,0.8-1.7,2.8-1.6v2.1c-2.4-0.2-2.5,1-2.5,2v4h-2.4V97.4z"/>
	<path d="M254.6,103.5c-0.1-0.5-0.1-0.9-0.1-1.1c-0.9,1.3-2,1.3-2.4,1.3c-1.2,0-1.7-0.3-2-0.6c-0.5-0.5-0.7-1.1-0.7-1.8
		c0-0.6,0.2-1.8,1.7-2.5c1-0.4,2.4-0.4,3.2-0.4c0-0.5,0-0.8-0.1-1.1c-0.2-0.6-0.8-0.7-1.1-0.7c-0.3,0-0.7,0.1-0.9,0.4
		c-0.2,0.3-0.2,0.5-0.2,0.7h-2.3c0-0.4,0.1-1.3,0.9-1.9c0.7-0.5,1.7-0.7,2.4-0.7c0.7,0,2.1,0.1,2.9,1c0.5,0.7,0.6,1.6,0.6,2l0,3.2
		c0,0.7,0,1.4,0.2,2H254.6z M251.6,101c0,0.5,0.4,1.2,1.2,1.2c0.4,0,0.8-0.2,1-0.5c0.4-0.5,0.4-1.1,0.4-2
		C252.7,99.6,251.6,100.1,251.6,101z"/>
	<path d="M258.6,96.9c0,0,0-0.9,0-1.5h2.3l0.1,1.2c0.2-0.4,0.9-1.4,2.6-1.4c1.6,0,2.3,1,2.5,1.5c0.2,0.5,0.2,0.9,0.2,2.4v4.4h-2.4
		v-5c0-0.3,0-0.6-0.1-0.9c-0.2-0.4-0.5-0.7-1.2-0.7c-0.5,0-1,0.2-1.2,0.6c-0.1,0.2-0.3,0.6-0.3,1.2v4.7h-2.4V96.9z"/>
	<path d="M272.2,95.3c2.9,0,4.2,2,4.2,4.2c0,2.3-1.3,4.3-4.2,4.3c-2.3,0-4.1-1.4-4.1-4.3C268,97.6,269,95.3,272.2,95.3z
		 M272.2,102.2c1,0,1.7-0.6,1.7-2.8c0-1.1-0.2-2.6-1.8-2.6c-1.7,0-1.7,2-1.7,2.7C270.4,101.4,271,102.2,272.2,102.2z"/>
	<path d="M278.1,92h2.5v2.1h-2.5V92z M278.2,95.4h2.4v8.1h-2.4V95.4z"/>
	<path d="M287.4,103.5c-0.1-0.5-0.1-0.9-0.1-1.1c-0.9,1.3-2,1.3-2.4,1.3c-1.2,0-1.7-0.3-2-0.6c-0.5-0.5-0.7-1.1-0.7-1.8
		c0-0.6,0.2-1.8,1.7-2.5c1-0.4,2.4-0.4,3.2-0.4c0-0.5,0-0.8-0.1-1.1c-0.2-0.6-0.8-0.7-1.1-0.7c-0.3,0-0.7,0.1-0.9,0.4
		c-0.2,0.3-0.2,0.5-0.2,0.7h-2.3c0-0.4,0.1-1.3,0.9-1.9c0.7-0.5,1.7-0.7,2.4-0.7c0.7,0,2.1,0.1,2.9,1c0.5,0.7,0.6,1.6,0.6,2l0,3.2
		c0,0.7,0,1.4,0.2,2H287.4z M284.5,101c0,0.5,0.4,1.2,1.2,1.2c0.4,0,0.8-0.2,1-0.5c0.4-0.5,0.4-1.1,0.4-2
		C285.6,99.6,284.5,100.1,284.5,101z"/>
</g>
</svg>
