<?xml version="1.0" encoding="utf-8"?>
<!-- Generator: Adobe Illustrator 25.2.3, SVG Export Plug-In . SVG Version: 6.00 Build 0)  -->
<svg version="1.1" id="Layer_1" xmlns="http://www.w3.org/2000/svg" xmlns:xlink="http://www.w3.org/1999/xlink" x="0px" y="0px"
	 viewBox="0 0 300 54.6" style="enable-background:new 0 0 300 54.6;" xml:space="preserve">
<g>
	<path d="M296,23.4c0.1,0,0.2,0,0.3,0.1c0.1,0,0.2,0.1,0.2,0.2c0.1,0.1,0.1,0.2,0.2,0.3c0.1,0.1,0.1,0.2,0.1,0.3l3.2,25.3
		c0,0.1,0,0.2,0,0.3s-0.1,0.2-0.1,0.3c-0.1,0.1-0.1,0.1-0.2,0.2c-0.1,0-0.2,0.1-0.3,0.1h-1.6c-0.1,0-0.2,0-0.3-0.1
		c-0.1-0.1-0.2-0.1-0.3-0.2c-0.1-0.1-0.1-0.2-0.2-0.3c0-0.1-0.1-0.2-0.1-0.3l-3.1-25.4c0-0.1,0-0.2,0-0.3c0-0.1,0.1-0.2,0.1-0.3
		c0.1-0.1,0.1-0.1,0.2-0.2c0.1,0,0.2-0.1,0.3,0L296,23.4z"/>
	<path d="M286.5,22.7c0.9,0,1.7,0.2,2.5,0.6c0.7,0.3,1.3,0.8,1.7,1.4c0.5,0.6,0.9,1.4,1.1,2.1c0.3,0.9,0.5,1.9,0.6,2.8l1.7,13.8
		c0.1,0.9,0.2,1.8,0.1,2.8c0,0.8-0.2,1.6-0.5,2.3s-0.8,1.2-1.4,1.6c-0.8,0.4-1.7,0.6-2.6,0.6s-1.8-0.2-2.6-0.5
		c-0.7-0.3-1.3-0.8-1.8-1.4c-0.5-0.7-0.9-1.4-1.1-2.2c-0.3-1-0.5-2-0.6-3l-1.6-14c-0.1-0.9-0.1-1.8-0.1-2.7c0-0.8,0.2-1.5,0.6-2.2
		c0.3-0.6,0.8-1.1,1.5-1.5C284.8,22.7,285.6,22.6,286.5,22.7z M291.1,44l-1.7-14.4c-0.1-0.6-0.2-1.2-0.3-1.7
		c-0.1-0.4-0.3-0.8-0.5-1.2c-0.2-0.3-0.4-0.6-0.8-0.8c-0.3-0.2-0.6-0.3-1-0.3c-0.3,0-0.6,0-0.9,0.2s-0.5,0.4-0.6,0.7
		c-0.2,0.4-0.2,0.8-0.3,1.2c0,0.6,0,1.2,0.1,1.7l1.7,14.6c0.1,0.5,0.2,1.1,0.3,1.6c0.1,0.4,0.3,0.8,0.6,1.2c0.2,0.3,0.5,0.5,0.8,0.7
		s0.6,0.2,0.9,0.2s0.6-0.1,0.9-0.2c0.3-0.2,0.5-0.4,0.6-0.7c0.2-0.4,0.3-0.8,0.3-1.2C291.2,45,291.2,44.5,291.1,44"/>
	<path d="M278.3,22.4c0.1,0,0.2,0,0.3,0.1c0.1,0.1,0.2,0.1,0.3,0.2c0.1,0.1,0.1,0.2,0.2,0.3c0.1,0.1,0.1,0.2,0.1,0.4l2.8,26.1
		c0,0.1,0,0.2,0,0.4c0,0.1-0.1,0.2-0.1,0.3c-0.1,0.1-0.1,0.1-0.2,0.2c-0.1,0.1-0.2,0.1-0.3,0.1h-3.3c-0.1,0-0.2,0-0.3-0.1
		c-0.1,0-0.2-0.1-0.2-0.2c-0.1-0.1-0.1-0.2-0.2-0.2c-0.1-0.1-0.1-0.2-0.1-0.3l-6.1-23.6H271l2.4,23.4c0,0.1,0,0.2,0,0.4
		c0,0.1-0.1,0.2-0.1,0.3c-0.1,0.1-0.1,0.2-0.2,0.2c-0.1,0.1-0.2,0.1-0.3,0.1h-1.4c-0.1,0-0.2,0-0.3-0.1c-0.1-0.1-0.2-0.1-0.3-0.2
		c-0.1-0.1-0.2-0.2-0.2-0.3c-0.1-0.1-0.1-0.2-0.1-0.4l-2.6-26.7c0-0.1,0-0.2,0-0.4c0-0.1,0.1-0.2,0.1-0.3c0.1-0.1,0.1-0.1,0.2-0.2
		c0.1,0,0.2-0.1,0.3,0l3.1,0.2c0.1,0,0.2,0,0.3,0.1c0.1,0,0.2,0.1,0.2,0.2c0.1,0.1,0.1,0.2,0.2,0.2c0.1,0.1,0.1,0.2,0.1,0.3
		l6.1,22.8h0.1l-2.4-22.4c0-0.1,0-0.2,0-0.3c0-0.2,0.2-0.4,0.3-0.4c0.1,0,0.2-0.1,0.3,0L278.3,22.4z"/>
	<path d="M264.5,21.5c0.1,0,0.2,0,0.3,0.1c0.1,0,0.2,0.1,0.3,0.2c0.1,0.1,0.1,0.2,0.2,0.3c0,0.1,0.1,0.2,0.1,0.4l2.5,26.8
		c0,0.1,0,0.2,0,0.4c0,0.1-0.1,0.2-0.1,0.3c-0.1,0.1-0.1,0.2-0.2,0.2c-0.1,0.1-0.2,0.1-0.3,0.1h-1.8c-0.1,0-0.2,0-0.3-0.1
		c-0.1-0.1-0.2-0.1-0.3-0.2c-0.1-0.1-0.2-0.2-0.2-0.3c-0.1-0.1-0.1-0.2-0.1-0.4l-1-11.4c0-0.1,0-0.3-0.1-0.4c0-0.1-0.1-0.2-0.2-0.3
		S263.1,37,263,37c-0.1-0.1-0.2-0.1-0.3-0.1l-3-0.1c-0.1,0-0.2,0-0.3,0.1c-0.1,0-0.2,0.1-0.2,0.2c-0.1,0.1-0.1,0.2-0.1,0.3
		s0,0.2,0,0.4l1,11.5c0,0.1,0,0.3,0,0.4c0,0.1-0.1,0.2-0.1,0.3c-0.1,0.1-0.1,0.2-0.2,0.2c-0.1,0.1-0.2,0.1-0.3,0.1h-1.9
		c-0.1,0-0.2,0-0.3-0.1c-0.1-0.1-0.2-0.1-0.3-0.2c-0.1-0.1-0.2-0.2-0.2-0.3c-0.1-0.1-0.1-0.2-0.1-0.4L254,21.8c0-0.1,0-0.2,0-0.4
		c0-0.1,0.1-0.2,0.1-0.3c0.1-0.1,0.1-0.1,0.2-0.2c0.1,0,0.2-0.1,0.3,0l1.8,0.1c0.1,0,0.2,0,0.3,0.1c0.1,0.1,0.2,0.1,0.3,0.2
		c0.1,0.1,0.2,0.2,0.2,0.3c0.1,0.1,0.1,0.2,0.1,0.4l0.9,10.4c0,0.1,0.1,0.3,0.1,0.4c0.1,0.1,0.1,0.2,0.2,0.3
		c0.2,0.2,0.4,0.3,0.6,0.3l3,0.1c0.1,0,0.2,0,0.3-0.1c0.1,0,0.2-0.1,0.2-0.2c0.1-0.1,0.1-0.2,0.1-0.3s0-0.2,0-0.4L262,22.3
		c0-0.1,0-0.2,0-0.4c0-0.1,0.1-0.2,0.1-0.3c0.1-0.1,0.1-0.1,0.2-0.2c0.1,0,0.2,0,0.3,0L264.5,21.5z"/>
	<path d="M247.1,20.2c0.8,0,1.6,0.2,2.3,0.5c0.6,0.3,1.2,0.7,1.7,1.2s0.8,1.1,1.1,1.7c0.3,0.7,0.4,1.4,0.5,2.2l0.1,1.9
		c0,0.1,0,0.2,0,0.4c0,0.1-0.1,0.2-0.1,0.3c-0.1,0.1-0.2,0.1-0.2,0.2c-0.1,0-0.2,0.1-0.3,0.1l-1.7-0.1c-0.1,0-0.2,0-0.3-0.1
		s-0.2-0.1-0.3-0.2s-0.2-0.2-0.2-0.3c-0.1-0.1-0.1-0.2-0.1-0.4l-0.1-1.1c0-0.4-0.1-0.8-0.2-1.3c-0.1-0.4-0.2-0.7-0.4-1
		s-0.4-0.5-0.7-0.6c-0.3-0.2-0.7-0.3-1-0.3c-0.4,0-0.8,0-1.1,0.2s-0.5,0.5-0.6,0.9c-0.1,0.5-0.2,1-0.2,1.5c0,0.8,0,1.5,0.1,2.3
		l1.1,14.7c0,0.7,0.2,1.5,0.3,2.2c0.1,0.5,0.3,0.9,0.6,1.3c0.2,0.2,0.5,0.4,0.8,0.5s0.6,0.2,0.8,0.2c0.3,0,0.6-0.1,0.9-0.2
		c0.3-0.2,0.5-0.4,0.6-0.6c0.2-0.3,0.3-0.7,0.4-1.1c0.1-0.5,0.1-1.1,0-1.6l-0.1-1.1c0-0.1,0-0.3,0-0.4c0-0.1,0.1-0.2,0.2-0.3
		c0.1-0.1,0.2-0.2,0.2-0.2c0.1,0,0.2-0.1,0.3-0.1h1.7c0.1,0,0.2,0,0.3,0.1s0.2,0.1,0.3,0.2c0.1,0.1,0.2,0.2,0.2,0.3
		c0.1,0.1,0.1,0.2,0.1,0.4l0.2,2.3c0.1,0.7,0,1.5-0.1,2.2c-0.1,0.6-0.3,1.2-0.7,1.8c-0.4,0.5-0.9,0.9-1.5,1.2
		c-0.8,0.3-1.7,0.4-2.6,0.4c-1,0-2-0.2-2.9-0.5c-0.8-0.3-1.5-0.8-2-1.5s-1-1.5-1.2-2.4c-0.3-1-0.5-2.1-0.5-3.2l-1-15.2
		c-0.1-1-0.1-2,0.1-2.9c0.1-0.8,0.4-1.7,0.8-2.4c0.4-0.7,1-1.2,1.7-1.6C245.1,20.3,246.1,20.1,247.1,20.2z"/>
	<path d="M240.4,46.1c0,0.2,0,0.4,0,0.6s0,0.5,0.1,0.7s0,0.5,0.1,0.7s0.1,0.5,0.1,0.8c0,0.1,0,0.3,0,0.4c0,0.1-0.1,0.2-0.2,0.3
		c-0.1,0.1-0.2,0.2-0.3,0.2c-0.1,0.1-0.2,0.1-0.4,0.1H238c-0.1,0-0.2,0-0.3,0c-0.2-0.1-0.3-0.2-0.5-0.4c-0.1-0.1-0.1-0.2-0.1-0.3
		c0-0.2-0.1-0.3-0.1-0.5s-0.1-0.3-0.1-0.5s0-0.4-0.1-0.5s0-0.4-0.1-0.6l-0.4-7c0-0.6-0.1-1.2-0.2-1.8c-0.1-0.4-0.2-0.8-0.5-1.1
		c-0.2-0.3-0.6-0.5-0.9-0.6c-0.5-0.1-1-0.2-1.5-0.2h-1.3l0.7,12.5c0,0.1,0,0.3-0.1,0.4c0,0.1-0.1,0.2-0.2,0.3
		c-0.1,0.1-0.2,0.2-0.3,0.2c-0.1,0.1-0.2,0.1-0.4,0.1h-2.1c-0.1,0-0.2,0-0.4-0.1c-0.1-0.1-0.2-0.1-0.3-0.2c-0.1-0.1-0.2-0.2-0.2-0.3
		c-0.1-0.1-0.1-0.3-0.1-0.4l-1.6-28.7c0-0.1,0-0.2,0-0.4c0-0.1,0.1-0.2,0.2-0.3c0.1-0.1,0.2-0.1,0.3-0.2c0.1,0,0.2-0.1,0.3,0l5,0.3
		c1.1,0,2.2,0.2,3.2,0.5c0.7,0.2,1.4,0.7,1.9,1.3c0.5,0.8,0.8,1.6,0.9,2.5c0.2,1.3,0.4,2.7,0.4,4c0.1,0.9,0.1,1.7,0.1,2.6
		c0,0.6-0.2,1.3-0.4,1.9c-0.2,0.5-0.6,1-1,1.3c-0.5,0.4-1.1,0.7-1.8,0.9v0.1c0.6,0.1,1.1,0.2,1.6,0.5c0.4,0.2,0.8,0.5,1.1,0.9
		s0.5,0.9,0.7,1.4c0.2,0.6,0.3,1.3,0.3,1.9L240.4,46.1z M232.6,33c0.6,0,1.2,0,1.8-0.1c0.4-0.1,0.8-0.3,1-0.7c0.2-0.5,0.4-1,0.4-1.5
		c0-0.9,0-1.8-0.1-2.7c-0.1-1.1-0.1-2-0.2-2.6c-0.1-0.5-0.2-1-0.4-1.5c-0.2-0.3-0.5-0.6-0.8-0.7c-0.4-0.1-0.9-0.2-1.4-0.2H232
		c-0.1,0-0.2,0-0.3,0s-0.2,0.1-0.3,0.2s-0.1,0.2-0.2,0.3c0,0.1,0,0.2,0,0.4l0.5,9L232.6,33"/>
	<path d="M217.7,18.4c1.1,0,2.2,0.3,3.2,0.7c0.8,0.3,1.6,0.9,2.1,1.6c0.6,0.7,1,1.5,1.2,2.4c0.3,1,0.5,2.1,0.5,3.2l0.8,15.6
		c0.1,1,0,2.1-0.1,3.1c-0.1,0.9-0.4,1.8-0.9,2.6s-1.2,1.4-2,1.8c-1.1,0.5-2.2,0.7-3.4,0.7c-1.1,0-2.3-0.2-3.3-0.6
		c-0.9-0.3-1.6-0.9-2.2-1.6c-0.6-0.8-1-1.6-1.3-2.5c-0.3-1.1-0.5-2.2-0.5-3.4l-0.6-16c-0.1-1,0-2.1,0.2-3.1c0.2-0.9,0.5-1.8,1-2.5
		s1.2-1.3,2-1.6C215.4,18.5,216.6,18.3,217.7,18.4z M221.6,42.6l-0.8-16.3c0-0.7-0.1-1.3-0.3-2c-0.1-0.5-0.3-1-0.6-1.4
		c-0.2-0.4-0.5-0.6-0.9-0.9c-0.4-0.2-0.8-0.3-1.2-0.3s-0.8,0-1.2,0.2c-0.3,0.2-0.6,0.4-0.8,0.8s-0.4,0.9-0.5,1.4
		c-0.1,0.7-0.1,1.3-0.1,2l0.7,16.5c0,0.6,0.1,1.2,0.3,1.8c0.1,0.5,0.3,0.9,0.6,1.3c0.2,0.3,0.6,0.6,0.9,0.8c0.4,0.2,0.7,0.3,1.1,0.3
		c0.8,0.1,1.6-0.3,2-1c0.3-0.4,0.4-0.8,0.5-1.3C221.6,43.8,221.6,43.2,221.6,42.6"/>
	<path d="M208.1,18.1c0.2,0,0.3,0.1,0.5,0.2c0.1,0.1,0.3,0.2,0.4,0.4c0.1,0.1,0.1,0.3,0.2,0.5c0,0.2,0,0.3-0.1,0.5l-5.6,12.5
		c0,0.1-0.1,0.1-0.1,0.2c0,0.1,0,0.2,0,0.2c0,0.1,0,0.2,0,0.2c0,0.1,0,0.2,0.1,0.2l7.2,15.3c0.1,0.2,0.1,0.3,0.1,0.5
		s-0.1,0.3-0.1,0.5c-0.1,0.1-0.2,0.3-0.3,0.3c-0.1,0.1-0.3,0.1-0.5,0.1h-2.5c-0.1,0-0.2,0-0.3,0s-0.2-0.1-0.3-0.1
		c-0.1-0.1-0.2-0.1-0.2-0.2c-0.1-0.1-0.1-0.2-0.2-0.3l-6.9-15.8h-0.1l0.4,15.3c0,0.3-0.1,0.6-0.3,0.8c-0.1,0.1-0.2,0.2-0.3,0.2
		c-0.1,0.1-0.3,0.1-0.4,0.1h-2.3c-0.1,0-0.3,0-0.4-0.1c-0.1-0.1-0.2-0.1-0.3-0.2c-0.1-0.1-0.2-0.2-0.2-0.3c-0.1-0.1-0.1-0.3-0.1-0.4
		l-0.6-30.3c0-0.3,0.1-0.5,0.3-0.7c0.1-0.1,0.2-0.2,0.3-0.2c0.1-0.1,0.3-0.1,0.4-0.1l2.2,0.1c0.1,0,0.3,0,0.4,0.1
		c0.1,0.1,0.2,0.1,0.3,0.2s0.2,0.2,0.2,0.3c0.1,0.1,0.1,0.3,0.1,0.4l0.4,13.4h0.1l5.9-13.5c0-0.1,0.1-0.2,0.1-0.2
		c0.1-0.1,0.1-0.1,0.2-0.2c0.1,0,0.2-0.1,0.2-0.1c0.1,0,0.2,0,0.3,0L208.1,18.1z"/>
	<path d="M139.3,17.3c0.5,0,1.1,0.1,1.5,0.4c0.4,0.2,0.8,0.6,1.1,1c0.3,0.5,0.5,1,0.6,1.6c0.1,0.7,0.2,1.5,0.1,2.2L142,41
		c0,0.7-0.1,1.4-0.3,2c-0.2,0.5-0.4,1-0.8,1.5c-0.3,0.4-0.7,0.7-1.2,0.9s-1,0.3-1.5,0.3s-1-0.1-1.5-0.3c-0.4-0.2-0.8-0.5-1.1-0.9
		c-0.3-0.5-0.5-1-0.7-1.5c-0.2-0.7-0.2-1.4-0.2-2.1l0.8-18.7c0-0.8,0.1-1.5,0.3-2.2c0.1-0.6,0.4-1.1,0.7-1.5s0.7-0.7,1.1-0.9
		C138.3,17.4,138.8,17.3,139.3,17.3z"/>
	<path d="M118.1,16.7c0.7,0,1.5,0.1,2.2,0.3c0.5,0.1,0.9,0.4,1.2,0.8c0.3,0.6,0.4,1.2,0.4,1.8c0,1.1,0,2.1-0.1,3.2
		c0,1.1-0.1,2.1-0.3,3.2c-0.1,0.7-0.3,1.3-0.6,1.8c-0.3,0.4-0.8,0.7-1.3,0.7c-0.7,0.1-1.5,0.1-2.2,0.1l-1.6-0.1
		c-0.2,0-0.3,0-0.5-0.1c-0.1-0.1-0.3-0.1-0.4-0.3c-0.1-0.1-0.2-0.2-0.2-0.4c-0.1-0.1-0.1-0.3-0.1-0.5l0.6-9.6c0-0.2,0.1-0.3,0.1-0.5
		c0.1-0.1,0.2-0.3,0.3-0.4c0.1-0.1,0.3-0.2,0.4-0.2c0.2-0.1,0.3-0.1,0.5-0.1L118.1,16.7z"/>
	<path d="M96.1,15.5c0.7,0,1.4,0.1,2.1,0.3c0.5,0.1,0.9,0.4,1.1,0.8c0.3,0.6,0.4,1.2,0.4,1.8c0,0.8,0,1.9-0.1,3.2
		c-0.1,1.1-0.2,2.2-0.4,3.3c-0.1,0.7-0.4,1.4-0.9,1.9c-0.4,0.5-1,0.7-1.7,0.8c-0.9,0.1-1.9,0.2-2.8,0.1l-1.5-0.1l1-11.2
		c0-0.2,0.1-0.3,0.2-0.5c0.1-0.1,0.2-0.3,0.3-0.4c0.1-0.1,0.3-0.2,0.4-0.2c0.2-0.1,0.4-0.1,0.5-0.1L96.1,15.5z"/>
	<path d="M71.8,15.4l1.8,17.2c0,0.2,0,0.4-0.1,0.6c-0.1,0.2-0.2,0.3-0.3,0.5c-0.2,0.1-0.3,0.2-0.5,0.3s-0.4,0.1-0.7,0.1l-4.5-0.2
		c-0.2,0-0.4-0.1-0.6-0.2c-0.2-0.1-0.3-0.2-0.5-0.3c-0.1-0.1-0.2-0.3-0.2-0.5s0-0.4,0-0.6L71.8,15.4L71.8,15.4z"/>
	<path d="M182.5,11.7c0.1,0,0.3,0,0.4,0.1c0.1,0.1,0.2,0.1,0.3,0.2c0.1,0.1,0.2,0.2,0.2,0.3c0.1,0.1,0.1,0.3,0.1,0.4l0.4,40.7
		c0,0.1,0,0.3-0.1,0.4c0,0.1-0.1,0.3-0.2,0.4c-0.2,0.2-0.5,0.3-0.8,0.3L1.6,54.6c-0.2,0-0.5,0-0.7-0.1s-0.4-0.2-0.5-0.3
		s-0.2-0.3-0.3-0.5s-0.1-0.4,0-0.6l9.1-52c0-0.2,0.1-0.4,0.2-0.5c0.1-0.2,0.3-0.3,0.4-0.4C10,0.1,10.2,0,10.4,0c0.2,0,0.4,0,0.7,0
		L182.5,11.7z M79.7,48.9c0.2,0,0.4,0,0.7-0.1c0.2-0.1,0.4-0.2,0.5-0.3s0.3-0.3,0.3-0.5c0.1-0.2,0.1-0.4,0.1-0.6l-4.9-36.3
		c0-0.1-0.1-0.3-0.2-0.4c-0.1-0.1-0.2-0.2-0.3-0.3c-0.1-0.1-0.3-0.2-0.4-0.2c-0.2-0.1-0.3-0.1-0.5-0.1l-4.8-0.3c-0.2,0-0.3,0-0.5,0
		c-0.3,0.1-0.6,0.2-0.8,0.4c-0.1,0.1-0.2,0.2-0.2,0.4L54.9,47.1c-0.1,0.4-0.1,0.8,0.2,1.1c0.1,0.2,0.3,0.3,0.5,0.4
		c0.2,0.1,0.4,0.1,0.7,0.1h3.4c0.2,0,0.4,0,0.5-0.1c0.2-0.1,0.3-0.1,0.5-0.2c0.1-0.1,0.3-0.2,0.4-0.3c0.1-0.1,0.2-0.3,0.2-0.4
		l2.6-8.1c0.1-0.2,0.1-0.3,0.2-0.4c0.1-0.1,0.2-0.2,0.4-0.3c0.1-0.1,0.3-0.2,0.5-0.2s0.4-0.1,0.5-0.1l7.4,0.2c0.2,0,0.3,0,0.5,0.1
		s0.3,0.1,0.4,0.2c0.1,0.1,0.2,0.2,0.3,0.3c0.1,0.1,0.1,0.3,0.1,0.4l0.8,8c0,0.2,0.1,0.3,0.1,0.4c0.1,0.1,0.2,0.3,0.3,0.3
		c0.1,0.1,0.3,0.2,0.4,0.2c0.2,0.1,0.3,0.1,0.5,0.1h3.2 M168.1,16.9c0-0.2,0-0.3,0-0.5s-0.1-0.3-0.2-0.4c-0.2-0.3-0.5-0.4-0.9-0.4
		l-2.4-0.1c-0.1,0-0.3,0-0.4,0c-0.2,0.1-0.4,0.2-0.6,0.4c-0.1,0.1-0.1,0.2-0.1,0.3l-5.2,26h-0.1l-4.4-26.5c0-0.1-0.1-0.2-0.1-0.4
		c-0.1-0.2-0.3-0.4-0.6-0.5c-0.1-0.1-0.3-0.1-0.4-0.1l-2.5-0.1c-0.2,0-0.3,0-0.5,0.1c-0.1,0.1-0.3,0.2-0.4,0.3
		c-0.1,0.1-0.2,0.2-0.2,0.4s0,0.3,0,0.5l6.1,32.7c0,0.1,0.1,0.3,0.1,0.4c0.1,0.1,0.2,0.2,0.3,0.3s0.2,0.1,0.3,0.2
		c0.1,0.1,0.3,0.1,0.4,0.1h3.8c0.1,0,0.3,0,0.4-0.1c0.1,0,0.2-0.1,0.3-0.2c0.1-0.1,0.2-0.2,0.2-0.3c0.1-0.1,0.1-0.2,0.1-0.4
		L168.1,16.9 M51.2,48.7c0.3,0,0.5-0.1,0.8-0.2c0.2-0.1,0.4-0.3,0.6-0.5c0.2-0.2,0.3-0.4,0.3-0.6c0-0.2,0-0.5-0.1-0.7l-8.2-19.4
		c0-0.1-0.1-0.2-0.1-0.3c0-0.2,0-0.4,0.1-0.6c0-0.1,0.1-0.2,0.2-0.3l11.7-15.6c0.1-0.2,0.2-0.4,0.2-0.6c0-0.2,0-0.4-0.2-0.6
		C56.4,9.1,56.2,9,56,8.9c-0.2-0.1-0.5-0.2-0.7-0.2l-3.1-0.2c-0.1,0-0.3,0-0.4,0c-0.1,0-0.3,0.1-0.4,0.1c-0.1,0.1-0.2,0.1-0.4,0.2
		c-0.1,0.1-0.2,0.2-0.3,0.3L38.3,26h-0.1l2.4-16.8c0-0.2,0-0.3-0.1-0.5s-0.1-0.3-0.3-0.4C40.1,8.1,40,8,39.8,7.9
		c-0.2-0.1-0.4-0.1-0.6-0.1l-3.6-0.2c-0.2,0-0.4,0-0.6,0.1c-0.2,0-0.4,0.1-0.5,0.2c-0.2,0.1-0.3,0.2-0.4,0.4
		c-0.1,0.1-0.2,0.3-0.2,0.5l-5.7,38.3c0,0.2,0,0.4,0,0.5c0.1,0.2,0.2,0.3,0.3,0.5c0.1,0.1,0.3,0.2,0.5,0.3s0.4,0.1,0.6,0.1h3.8
		c0.2,0,0.4,0,0.7-0.1c0.2-0.1,0.4-0.2,0.6-0.3c0.2-0.1,0.3-0.3,0.4-0.4c0.1-0.2,0.2-0.3,0.2-0.5L38,27.8h0.1l7.7,20
		c0.1,0.1,0.1,0.2,0.2,0.3c0.1,0.1,0.2,0.2,0.3,0.3s0.3,0.1,0.4,0.2c0.2,0,0.3,0.1,0.5,0.1H51.2 M147.2,40.2l0.5-17.7
		c0.1-1.2-0.1-2.4-0.3-3.6c-0.3-1-0.7-1.9-1.4-2.7c-0.7-0.8-1.6-1.4-2.6-1.8c-1.3-0.5-2.6-0.8-4-0.8c-1.5-0.1-2.9,0-4.3,0.5
		c-1.1,0.3-2,1-2.8,1.8c-0.7,0.8-1.2,1.8-1.5,2.8c-0.3,1.1-0.5,2.3-0.5,3.5l-0.8,18.1c-0.1,1.3,0,2.6,0.3,3.8
		c0.2,1.1,0.7,2.1,1.4,2.9c0.7,0.8,1.7,1.5,2.7,1.8c1.4,0.5,2.8,0.7,4.2,0.7c1.5,0,3-0.2,4.4-0.8c1.1-0.4,2-1.1,2.8-2.1
		c0.7-0.9,1.2-1.9,1.4-3C147,42.6,147.2,41.4,147.2,40.2 M117.9,32.9c1.5,0.1,3.1,0,4.6-0.3c1-0.2,2-0.7,2.8-1.5
		c0.7-0.9,1.2-1.9,1.4-3.1c0.3-1.6,0.5-3.3,0.6-5s0.1-3.3-0.1-5c-0.1-1.1-0.5-2.2-1.1-3.1c-0.7-0.8-1.5-1.4-2.5-1.6
		c-1.4-0.4-2.9-0.6-4.4-0.7l-7.7-0.5c-0.2,0-0.3,0-0.5,0.1c-0.2,0-0.3,0.1-0.4,0.2c-0.1,0.1-0.2,0.2-0.3,0.4
		c-0.1,0.1-0.1,0.3-0.1,0.4l-2.3,34.5c0,0.2,0,0.3,0.1,0.5s0.1,0.3,0.3,0.4c0.1,0.1,0.3,0.2,0.4,0.3c0.2,0.1,0.3,0.1,0.5,0.1h3
		c0.4,0,0.7-0.1,1-0.4c0.1-0.1,0.2-0.2,0.3-0.4c0.1-0.2,0.1-0.3,0.1-0.5l0.8-13.8c0-0.2,0.1-0.3,0.1-0.5c0.1-0.1,0.2-0.3,0.3-0.4
		c0.1-0.1,0.3-0.2,0.4-0.2c0.2-0.1,0.3-0.1,0.5-0.1L117.9,32.9 M104.1,35.9c0.1-0.8,0-1.6-0.1-2.3c-0.1-0.6-0.4-1.2-0.8-1.7
		c-0.4-0.5-0.9-0.9-1.5-1.2c-0.8-0.3-1.6-0.5-2.4-0.6v-0.2c1-0.2,2.1-0.6,3-1.1c0.7-0.4,1.3-0.9,1.8-1.6s0.8-1.5,0.9-2.3
		c0.2-1.1,0.4-2.1,0.4-3.2c0.2-1.6,0.2-3.3,0.1-4.9c0-1.1-0.4-2.2-1-3.1c-0.7-0.8-1.6-1.4-2.6-1.7c-1.6-0.4-3.3-0.7-4.9-0.7
		l-7.8-0.4c-0.2,0-0.4,0-0.5,0.1c-0.2,0-0.3,0.1-0.5,0.2c-0.1,0.1-0.2,0.2-0.3,0.4c-0.1,0.1-0.1,0.3-0.2,0.5l-3.2,35.6
		c0,0.2,0,0.3,0.1,0.5s0.2,0.3,0.3,0.4c0.1,0.1,0.3,0.2,0.4,0.3c0.2,0.1,0.4,0.1,0.6,0.1h3.2c0.4,0,0.7-0.1,1-0.4
		c0.1-0.1,0.3-0.2,0.3-0.4c0.1-0.2,0.1-0.3,0.2-0.5l1.3-15.5l2,0.1c0.8,0,1.6,0.1,2.3,0.3c0.5,0.1,1,0.4,1.3,0.8
		c0.3,0.4,0.5,0.9,0.6,1.4c0.1,0.7,0.1,1.5,0,2.2l-0.7,8.7c0,0.3,0,0.5,0,0.8s0,0.5,0,0.7s0,0.4,0,0.6c0,0.2,0.1,0.4,0.1,0.6
		c0,0.1,0.1,0.2,0.2,0.3s0.2,0.2,0.3,0.3c0.1,0.1,0.2,0.1,0.4,0.2c0.1,0,0.3,0.1,0.4,0.1h3c0.2,0,0.4,0,0.6-0.1s0.3-0.2,0.5-0.3
		c0.1-0.1,0.2-0.3,0.3-0.4c0.1-0.2,0.1-0.3,0.1-0.5c0-0.3,0-0.6,0-0.9v-0.9c0-0.3,0-0.6,0.1-0.9s0-0.5,0-0.8"/>
</g>
</svg>
