<svg id="Layer_1" data-name="Layer 1" xmlns="http://www.w3.org/2000/svg" viewBox="0 0 500 484.5"><defs><style>.cls-1{fill:black;}</style></defs><path class="cls-1" d="M474.52,223.55c0,124-100.52,224.51-224.52,224.51S25.48,347.55,25.48,223.55C25.48,114.12,103.76,23,207.38,3.07q-3.15.56-6.27,1.2a241.13,241.13,0,0,0-86.74,36.5A242.37,242.37,0,0,0,48.85,377.55a243.16,243.16,0,0,0,106.73,87.88,241.08,241.08,0,0,0,45.53,14.14,244.88,244.88,0,0,0,97.78,0,241.6,241.6,0,0,0,86.74-36.5,243.32,243.32,0,0,0,87.89-106.73,241.78,241.78,0,0,0,14.13-45.53,244.88,244.88,0,0,0,0-97.78,240.93,240.93,0,0,0-36.5-86.74A243.32,243.32,0,0,0,344.42,18.4,241.05,241.05,0,0,0,298.89,4.27q-3.12-.64-6.27-1.2C396.24,23,474.52,114.12,474.52,223.55Z"/><path class="cls-1" d="M437.78,186.81c0,103.71-84.07,187.78-187.78,187.78S62.22,290.52,62.22,186.81c0-91.44,65.36-167.61,151.91-184.35q-2.82.5-5.61,1.06a204.64,204.64,0,0,0-73.61,31,206.44,206.44,0,0,0-74.58,90.57,205.29,205.29,0,0,0-12,38.63,208,208,0,0,0,0,83,204.64,204.64,0,0,0,31,73.61,207.32,207.32,0,0,0,55.6,55.6,205.66,205.66,0,0,0,230.18,0,206.44,206.44,0,0,0,74.58-90.57,205.38,205.38,0,0,0,12-38.64,208,208,0,0,0,0-83A205.54,205.54,0,0,0,395.55,59.63a206,206,0,0,0-65.43-44.12,204.65,204.65,0,0,0-38.64-12q-2.79-.57-5.61-1.06C372.42,19.2,437.78,95.37,437.78,186.81Z"/><path class="cls-1" d="M401,150.07A151,151,0,1,1,220.88,1.84c-1.66.29-3.31.6-5,.93A169,169,0,0,0,84.33,134.36a171,171,0,0,0,0,68.16A168,168,0,0,0,109.78,263a169.22,169.22,0,0,0,296-28.73,168.39,168.39,0,0,0,9.85-31.74,171,171,0,0,0,0-68.16A169,169,0,0,0,284.08,2.77c-1.65-.33-3.3-.64-5-.93A151.08,151.08,0,0,1,401,150.07Z"/><path class="cls-1" d="M364.3,113.33A114.3,114.3,0,1,1,227.63,1.22c-1.44.25-2.88.51-4.31.81A131.31,131.31,0,0,0,176,21.94a132.37,132.37,0,0,0,47.33,239.44,134.14,134.14,0,0,0,53.36,0,132.32,132.32,0,0,0,103-103,134.14,134.14,0,0,0,0-53.36,132.24,132.24,0,0,0-103-103c-1.43-.3-2.87-.56-4.31-.81A114.34,114.34,0,0,1,364.3,113.33Z"/><path class="cls-1" d="M212.78,6.85a94.92,94.92,0,0,0-16.25,8.81A96.6,96.6,0,0,0,170.7,41.5a95.46,95.46,0,0,0,0,106.93,96.37,96.37,0,0,0,25.83,25.83,95.66,95.66,0,0,0,16.25,8.82,94.46,94.46,0,0,0,17.95,5.56,96.67,96.67,0,0,0,38.54,0,94.46,94.46,0,0,0,18-5.56,95.66,95.66,0,0,0,16.25-8.82,96.37,96.37,0,0,0,25.83-25.83,96,96,0,0,0,8.82-16.24,94.34,94.34,0,0,0,5.56-18,96.67,96.67,0,0,0,0-38.54A94.68,94.68,0,0,0,329.3,41.5a96.6,96.6,0,0,0-25.83-25.84,95.29,95.29,0,0,0-34.2-14.38C268.12,1,267,.83,265.78.64a77.56,77.56,0,1,1-31.56,0c-1.17.19-2.34.4-3.49.64A94.49,94.49,0,0,0,212.78,6.85Z"/><path class="cls-1" d="M290.82,39.85A40.82,40.82,0,1,1,241.13,0c-1,.15-2,.33-3,.53a57.29,57.29,0,0,0-11,3.43,58.06,58.06,0,0,0-10,5.43,59.57,59.57,0,0,0-15.9,15.91,58,58,0,0,0-8.86,21.05,59.8,59.8,0,0,0,0,23.74,58,58,0,0,0,8.86,21.06,59.57,59.57,0,0,0,15.9,15.91,59.46,59.46,0,0,0,10,5.43,58,58,0,0,0,11,3.42,59.31,59.31,0,0,0,23.74,0,58,58,0,0,0,11.05-3.42,58.65,58.65,0,0,0,18.72-12.63,60.16,60.16,0,0,0,7.19-8.71,58,58,0,0,0,8.86-21.06,59.8,59.8,0,0,0,0-23.74,58,58,0,0,0-8.86-21,59.57,59.57,0,0,0-15.9-15.91,58.06,58.06,0,0,0-10-5.43A57.29,57.29,0,0,0,261.87.53c-1-.2-2-.38-3-.53A40.83,40.83,0,0,1,290.82,39.85Z"/></svg>